<?xml version="1.0" encoding="UTF-8" standalone="no"?>
<svg
   xmlns:dc="http://purl.org/dc/elements/1.1/"
   xmlns:cc="http://creativecommons.org/ns#"
   xmlns:rdf="http://www.w3.org/1999/02/22-rdf-syntax-ns#"
   xmlns:svg="http://www.w3.org/2000/svg"
   xmlns="http://www.w3.org/2000/svg"
   viewBox="0 0 816 1056"
   height="1056"
   width="816"
   xml:space="preserve"
   id="svg2"
   version="1.1"><metadata
     id="metadata8"><rdf:RDF><cc:Work
         rdf:about=""><dc:format>image/svg+xml</dc:format><dc:type
           rdf:resource="http://purl.org/dc/dcmitype/StillImage" /></cc:Work></rdf:RDF></metadata><defs
     id="defs6"><clipPath
       id="clipPath18"
       clipPathUnits="userSpaceOnUse"><path
         id="path16"
         d="M 0,792 H 612 V 0 H 0 Z" /></clipPath><clipPath
       id="clipPath30"
       clipPathUnits="userSpaceOnUse"><path
         id="path28"
         d="M 0,792 H 612 V 0 H 0 Z" /></clipPath><clipPath
       id="clipPath98"
       clipPathUnits="userSpaceOnUse"><path
         id="path96"
         d="M 0,792 H 612 V 0 H 0 Z" /></clipPath><clipPath
       id="clipPath106"
       clipPathUnits="userSpaceOnUse"><path
         id="path104"
         d="M 295.24,278.456 H 495.269 V 242.189 H 295.24 Z" /></clipPath><clipPath
       id="clipPath122"
       clipPathUnits="userSpaceOnUse"><path
         id="path120"
         d="M 192.327,258.891 H 393.351 V 199.078 H 192.327 Z" /></clipPath><clipPath
       id="clipPath138"
       clipPathUnits="userSpaceOnUse"><path
         id="path136"
         d="m 254.871,440.337 h 74.877 v -54.262 h -74.877 z" /></clipPath><clipPath
       id="clipPath154"
       clipPathUnits="userSpaceOnUse"><path
         id="path152"
         d="M 94.8719,355.66 H 292.9 V 242.178 H 94.8719 Z" /></clipPath><clipPath
       id="clipPath170"
       clipPathUnits="userSpaceOnUse"><path
         id="path168"
         d="M 343.047,171.233 H 444.466 V 135.958 H 343.047 Z" /></clipPath><clipPath
       id="clipPath186"
       clipPathUnits="userSpaceOnUse"><path
         id="path184"
         d="m 242.343,429.164 h 98.292 v -53.039 h -98.292 z" /></clipPath><clipPath
       id="clipPath202"
       clipPathUnits="userSpaceOnUse"><path
         id="path200"
         d="M 221.31,136.223 H 336.858 V 88.1592 H 221.31 Z" /></clipPath><clipPath
       id="clipPath218"
       clipPathUnits="userSpaceOnUse"><path
         id="path216"
         d="m 331.197,227.341 h 80.29 v -37.054 h -80.29 z" /></clipPath><clipPath
       id="clipPath234"
       clipPathUnits="userSpaceOnUse"><path
         id="path232"
         d="M 316.044,164.443 H 489.647 V 98.3252 H 316.044 Z" /></clipPath><clipPath
       id="clipPath250"
       clipPathUnits="userSpaceOnUse"><path
         id="path248"
         d="m 172.815,193 h 60.583 v -7.228 h -60.583 z" /></clipPath><clipPath
       id="clipPath266"
       clipPathUnits="userSpaceOnUse"><path
         id="path264"
         d="M 100.704,170.881 H 341.886 V 116.128 H 100.704 Z" /></clipPath><clipPath
       id="clipPath282"
       clipPathUnits="userSpaceOnUse"><path
         id="path280"
         d="m 269.833,525.17 h 59.534 v -17.791 h -59.534 z" /></clipPath><clipPath
       id="clipPath298"
       clipPathUnits="userSpaceOnUse"><path
         id="path296"
         d="m 285.726,468.535 h 19.468 v -6.748 h -19.468 z" /></clipPath><clipPath
       id="clipPath314"
       clipPathUnits="userSpaceOnUse"><path
         id="path312"
         d="M 0,792 H 612 V 0 H 0 Z" /></clipPath></defs><g
     transform="matrix(1.3333333,0,0,-1.3333333,0,1056)"
     id="g10"><g
       id="g12"><g
         clip-path="url(#clipPath18)"
         id="g14"><g
           transform="translate(408.4521,300.9336)"
           id="g20"><path
             id="path22"
             style="fill:#000000;fill-opacity:1;fill-rule:nonzero;stroke:none"
             d="m 0,0 c -1.548,-0.222 -3.129,-0.47 -4.751,-0.746 0.407,2.677 0.847,5.362 1.315,8.053 C -2.296,4.866 -1.149,2.428 0,0 m -228.003,-0.159 c -0.367,0.055 -0.732,0.108 -1.096,0.161 0.242,0.513 0.486,1.03 0.732,1.552 0.123,-0.57 0.244,-1.141 0.364,-1.713 M 51.598,-77.126 c -20.68,4.94 -41.909,7.342 -60.559,9.124 -0.027,1.096 -0.051,2.213 -0.069,3.348 3.77,-0.073 7.446,-0.109 10.968,-0.109 17.959,0 36.13,0.834 54.007,2.48 12.697,1.17 28.095,4.166 34.527,17.065 5.99,12.015 0.618,24.97 -6.08,37.18 L 35.666,80.769 c 0.065,5.74 -0.28,10.83 -1.053,15.525 -2.242,13.647 -8.5,24.948 -17.622,31.823 -4.67,3.519 -10.15,5.999 -16.752,7.58 -0.815,0.196 -1.636,0.374 -2.46,0.536 -5.284,1.04 -11.08,1.524 -18.24,1.524 -1.154,0 -2.298,-0.012 -3.431,-0.033 -17.095,-0.321 -34.301,-2.073 -51.169,-5.211 l 0.121,4.29 c 37.018,11.169 66.282,40.339 77.602,77.26 1.444,-0.311 2.917,-0.47 4.379,-0.47 1.266,0 2.532,0.117 3.768,0.349 6.927,1.303 13.455,6.015 17.907,12.93 3.767,5.852 5.723,12.465 7.275,18.742 1.574,6.37 2.985,13.263 2.655,20.511 -0.375,8.232 -3.151,15.669 -7.82,20.941 -4.61,5.205 -11.265,8.312 -17.805,8.312 -1.537,0 -3.06,-0.17 -4.524,-0.506 -0.251,-0.057 -0.501,-0.121 -0.75,-0.189 l -0.009,52.451 c 0.007,0.092 0.01,0.184 0.01,0.276 0,0 -0.001,5.712 -0.001,5.716 -0.032,64.041 -52.159,116.141 -116.199,116.141 h -16 c -29.433,0 -57.53,-11.068 -79.116,-31.165 -21.473,-19.991 -34.522,-47.019 -36.744,-76.102 -0.105,-1.367 -0.186,-2.854 -0.249,-4.546 -0.063,-1.671 -0.091,-3.065 -0.091,-4.388 v -58.245 c -0.072,0.017 -0.144,0.034 -0.217,0.051 -1.464,0.335 -2.986,0.505 -4.523,0.505 -6.541,0 -13.197,-3.107 -17.807,-8.311 -4.668,-5.27 -7.445,-12.707 -7.82,-20.941 -0.33,-7.247 1.081,-14.141 2.655,-20.511 1.551,-6.275 3.506,-12.888 7.276,-18.743 4.454,-6.914 10.981,-11.627 17.908,-12.93 1.233,-0.231 2.497,-0.348 3.767,-0.348 1.287,0 2.59,0.127 3.877,0.373 11.351,-36.897 40.646,-66.051 77.659,-77.189 l 0.187,-3.611 c -15.708,2.729 -31.673,4.261 -47.517,4.558 -1.133,0.021 -2.28,0.033 -3.435,0.033 -7.157,0 -12.951,-0.484 -18.233,-1.524 -0.826,-0.162 -1.646,-0.34 -2.459,-0.535 -6.604,-1.582 -12.085,-4.062 -16.757,-7.582 -9.119,-6.873 -15.377,-18.175 -17.621,-31.821 -0.772,-4.698 -1.117,-9.788 -1.05,-15.527 l -48.726,-88.806 c -6.699,-12.21 -12.073,-25.165 -6.082,-37.18 6.432,-12.899 21.831,-15.895 34.528,-17.065 17.87,-1.646 36.04,-2.48 54.006,-2.48 3.069,0 6.169,0.027 9.39,0.08 -0.054,-5.093 -0.229,-10.071 -0.527,-14.856 -27.536,-9.854 -53.58,-23.395 -77.43,-40.263 -7.379,-5.219 -15.709,-11.54 -21.182,-20.549 -6.203,-10.21 -7.003,-22.57 -2.039,-31.491 7.46,-13.403 24.058,-16.336 37.685,-17.394 15.136,-1.175 30.602,-1.771 45.97,-1.771 15.138,0 30.652,0.599 46.205,1.782 -0.261,-1.335 -0.389,-2.682 -0.378,-4.021 0.039,-4.695 1.939,-8.527 5.209,-10.511 0.875,-0.531 1.843,-0.922 2.868,-1.161 0.925,-2.011 1.825,-3.23 2.566,-3.988 0.215,-0.548 0.48,-1.064 0.793,-1.54 1.677,-2.56 4.658,-4.26 7.964,-4.547 0.371,-0.033 0.739,-0.048 1.105,-0.048 0.774,0 1.571,0.071 2.413,0.217 0.01,-0.003 0.02,-0.006 0.03,-0.009 0.215,-0.188 0.448,-0.356 0.696,-0.506 1.958,-1.188 4.11,-2.126 6.399,-2.787 1.412,-0.407 2.872,-0.702 4.332,-0.876 0.159,-0.019 0.342,-0.031 0.504,-0.031 0.529,0 1.131,0.121 1.62,0.325 1.401,0.586 2.805,1.236 4.295,1.99 2.149,1.088 4.242,2.254 6.375,3.452 l 0.105,0.059 c 0.781,0.438 1.563,0.878 2.344,1.309 14.569,8.036 30.252,13.985 46.666,17.707 3.55,-7.047 11.13,-12.621 19.607,-14.093 1.962,-0.342 4.029,-0.515 6.144,-0.515 9.023,0 17.788,3.1 24.832,5.59 l 78.414,27.722 c 15.709,5.551 33.514,11.844 46.52,25.048 12.692,12.885 20.123,35.799 8.892,52.884 -8.218,12.498 -23.424,17.483 -35.753,20.429" /></g></g></g><g
       id="g24"><g
         clip-path="url(#clipPath30)"
         id="g26"><g
           transform="translate(263.3145,636.7256)"
           id="g32"><path
             id="path34"
             style="fill:#231f20;fill-opacity:1;fill-rule:nonzero;stroke:none"
             d="m 0,0 c -9.453,2.596 -19.293,3.912 -29.247,3.912 -9.425,0 -18.794,-1.186 -27.848,-3.527 -0.017,-0.004 -0.033,-0.006 -0.05,-0.006 -0.064,0 -0.125,0.031 -0.163,0.084 -0.048,0.068 -0.049,0.159 -0.003,0.227 1.551,2.314 3.518,4.363 5.687,5.923 6.206,4.464 13.98,6.158 21.457,7.323 4.358,0.678 7.407,0.968 10.196,0.968 1.824,0 3.508,-0.129 5.146,-0.393 C -9.384,13.632 -4.757,11.032 -2.131,7.378 -0.64,5.305 0.207,2.755 0.253,0.196 0.254,0.133 0.225,0.074 0.175,0.035 0.14,0.007 0.097,-0.007 0.053,-0.007 0.035,-0.007 0.017,-0.005 0,0" /></g><g
           transform="translate(169.0625,520.7241)"
           id="g36"><path
             id="path38"
             style="fill:#dfb28b;fill-opacity:1;fill-rule:nonzero;stroke:none"
             d="m 0,0 c -0.893,0 -1.784,0.083 -2.646,0.245 -5.261,0.989 -10.305,4.704 -13.84,10.193 -3.278,5.091 -5.047,11.118 -6.47,16.873 -1.461,5.916 -2.774,12.281 -2.48,18.742 0.311,6.822 2.537,12.899 6.268,17.112 3.452,3.898 8.367,6.225 13.149,6.225 1.077,0 2.138,-0.119 3.157,-0.352 2.077,-0.475 4.06,-1.528 5.734,-3.044 0.042,-0.038 0.066,-0.092 0.066,-0.148 V 33.817 c 0,-0.09 -0.061,-0.17 -0.148,-0.193 -0.018,-0.005 -0.035,-0.007 -0.053,-0.007 -0.07,0 -0.135,0.036 -0.172,0.098 -0.734,1.25 -1.413,2.336 -2.075,3.322 -0.372,0.555 -0.754,1.103 -1.142,1.646 -1.246,1.74 -2.433,3.26 -3.631,4.647 -1.652,1.913 -3.517,3.849 -5.956,5.042 -1.37,0.67 -2.859,1.024 -4.305,1.024 -1.397,0 -2.709,-0.332 -3.794,-0.96 -2.739,-1.589 -3.89,-5.207 -2.464,-7.743 0.177,-0.316 0.51,-0.511 0.872,-0.511 0.171,0 0.34,0.044 0.489,0.129 0.233,0.13 0.401,0.344 0.473,0.601 0.072,0.257 0.04,0.527 -0.091,0.76 -0.978,1.741 0.103,4.093 1.724,5.033 0.787,0.456 1.751,0.697 2.787,0.697 1.138,0 2.324,-0.286 3.43,-0.827 2.116,-1.034 3.808,-2.8 5.322,-4.553 1.204,-1.394 2.381,-2.902 3.598,-4.61 0.055,-0.078 0.048,-0.184 -0.017,-0.253 -2.604,-2.782 -4.51,-6.083 -5.51,-9.548 -0.153,-0.53 0.154,-1.085 0.684,-1.238 0.093,-0.026 0.186,-0.04 0.277,-0.04 0.443,0 0.838,0.298 0.961,0.724 0.86,2.981 2.478,5.861 4.679,8.33 0.039,0.042 0.093,0.067 0.15,0.067 0.005,0 0.01,-10e-4 0.015,-10e-4 0.062,-0.005 0.118,-0.038 0.152,-0.09 1.37,-2.089 2.623,-4.259 3.723,-6.45 L 2.938,28.276 C 2.938,19.267 4.026,10.27 6.174,1.536 6.197,1.442 6.149,1.345 6.062,1.305 4.162,0.452 2.066,0 0,0" /></g><g
           transform="translate(415.4687,520.7241)"
           id="g40"><path
             id="path42"
             style="fill:#dfb28b;fill-opacity:1;fill-rule:nonzero;stroke:none"
             d="m 0,0 c -2.258,0 -4.521,0.531 -6.544,1.536 -0.084,0.041 -0.128,0.135 -0.105,0.226 2.065,8.478 3.132,17.224 3.173,25.997 1.216,2.586 2.651,5.116 4.284,7.604 0.034,0.052 0.089,0.085 0.152,0.09 0.005,0 0.01,10e-4 0.015,10e-4 0.056,0 0.111,-0.025 0.149,-0.067 2.201,-2.468 3.819,-5.349 4.68,-8.331 0.123,-0.425 0.518,-0.723 0.961,-0.723 0.09,0 0.184,0.014 0.278,0.041 0.529,0.152 0.836,0.708 0.683,1.237 -1.001,3.466 -2.908,6.767 -5.511,9.548 -0.065,0.069 -0.071,0.175 -0.017,0.253 1.212,1.702 2.389,3.21 3.599,4.611 1.514,1.753 3.206,3.518 5.321,4.552 1.106,0.541 2.291,0.827 3.429,0.827 1.038,0 2.002,-0.241 2.788,-0.697 1.621,-0.94 2.703,-3.292 1.725,-5.033 -0.131,-0.234 -0.164,-0.504 -0.091,-0.76 0.071,-0.258 0.24,-0.471 0.473,-0.602 0.149,-0.083 0.317,-0.127 0.487,-0.127 0.362,0 0.697,0.195 0.876,0.51 1.424,2.536 0.271,6.155 -2.466,7.743 -1.085,0.628 -2.397,0.96 -3.794,0.96 -1.446,0 -2.935,-0.354 -4.306,-1.024 C 7.801,47.178 5.936,45.243 4.283,43.33 3.089,41.948 1.901,40.428 0.652,38.683 0.264,38.14 -0.118,37.592 -0.49,37.038 -1.408,35.67 -2.26,34.277 -3.094,32.779 -3.13,32.715 -3.197,32.676 -3.269,32.676 c -0.016,0 -0.033,0.003 -0.049,0.007 -0.089,0.023 -0.151,0.102 -0.151,0.193 v 32.458 c 0,0.053 0.021,0.103 0.058,0.141 1.78,1.799 3.949,3.031 6.273,3.563 1.018,0.233 2.079,0.35 3.155,0.35 4.784,0 9.7,-2.326 13.151,-6.223 C 22.9,58.951 25.126,52.874 25.436,46.053 25.729,39.588 24.417,33.225 22.956,27.311 21.535,21.559 19.768,15.534 16.486,10.438 12.952,4.949 7.907,1.234 2.646,0.245 1.781,0.083 0.891,0 0,0" /></g><g
           transform="translate(330.999,636.7187)"
           id="g44"><path
             id="path46"
             style="fill:#231f20;fill-opacity:1;fill-rule:nonzero;stroke:none"
             d="m 0,0 c -0.044,0 -0.087,0.015 -0.123,0.042 -0.05,0.039 -0.078,0.099 -0.077,0.162 0.047,2.558 0.892,5.108 2.383,7.181 2.627,3.654 7.254,6.254 12.694,7.133 1.64,0.264 3.324,0.393 5.149,0.393 2.79,0 5.838,-0.29 10.193,-0.969 C 37.694,12.778 45.468,11.085 51.676,6.62 53.846,5.059 55.813,3.011 57.363,0.698 57.409,0.629 57.408,0.539 57.36,0.471 57.322,0.417 57.261,0.386 57.197,0.386 c -0.016,0 -0.033,0.003 -0.05,0.007 C 48.095,2.733 38.726,3.919 29.301,3.919 19.347,3.919 9.506,2.603 0.053,0.007 0.035,0.002 0.018,0 0,0" /></g><g
           transform="translate(409.6758,659.1021)"
           id="g48"><path
             id="path50"
             style="fill:#231f20;fill-opacity:1;fill-rule:nonzero;stroke:none"
             d="m 0,0 c -0.072,0 -0.141,0.04 -0.176,0.105 -4.196,7.796 -10.136,15.18 -17.652,21.946 -8.215,7.396 -17.522,13.465 -25.543,18.427 -0.069,0.043 -0.107,0.125 -0.091,0.206 1.467,7.983 1.094,16.345 -1.079,24.18 -0.188,0.679 -0.391,1.352 -0.605,2.023 -0.57,-0.406 -1.143,-0.799 -1.717,-1.19 -23.418,-15.949 -50.88,-19.298 -69.794,-19.298 -1.965,0 -3.961,0.036 -5.929,0.106 -24.002,0.846 -46.649,6.054 -75.41,14.182 l -1.927,0.543 c -0.228,-0.628 -0.451,-1.257 -0.655,-1.893 -2.102,-6.534 -3.01,-13.345 -2.698,-20.243 0.004,-0.071 -0.031,-0.137 -0.089,-0.176 -12.169,-8.036 -22.94,-18.756 -31.149,-31.001 -0.038,-0.057 -0.101,-0.089 -0.166,-0.089 -0.024,0 -0.047,0.005 -0.07,0.013 -0.086,0.032 -0.14,0.119 -0.129,0.211 6.603,55.211 53.55,96.846 109.203,96.846 h 16 C -50.922,104.898 -2.658,58.914 0.2,0.21 0.204,0.117 0.144,0.033 0.054,0.007 0.036,0.002 0.018,0 0,0" /></g><g
           transform="translate(312.1924,242.1895)"
           id="g52"><path
             id="path54"
             style="fill:#dfb28b;fill-opacity:1;fill-rule:nonzero;stroke:none"
             d="m 0,0 c -2.688,0 -4.777,0.511 -5.881,1.438 -2.97,2.495 -9.918,8.959 -10.313,15.104 -1.083,16.806 -0.894,34.01 -0.711,50.646 0.161,14.665 0.328,29.801 -0.383,44.802 l 0.071,1.291 c 0.003,0.064 0.036,0.121 0.09,0.157 0.032,0.021 0.071,0.033 0.109,0.033 0.023,0 0.047,-0.004 0.069,-0.013 1.698,-0.619 3.283,-1.959 4.348,-3.674 1.564,-2.518 2.166,-5.549 2.749,-8.479 l 7.294,-36.731 c 0.092,-0.467 0.504,-0.805 0.98,-0.805 0.067,0 0.135,0.006 0.192,0.018 0.266,0.053 0.492,0.204 0.641,0.427 0.147,0.222 0.2,0.488 0.148,0.749 l -7.293,36.73 c -0.589,2.963 -1.255,6.318 -3.011,9.146 -1.33,2.14 -3.26,3.748 -5.433,4.523 -0.037,0.014 -0.069,0.037 -0.093,0.069 -0.123,0.164 -0.291,0.278 -0.499,0.341 -0.088,0.027 -0.147,0.111 -0.142,0.203 0,0 0.08,1.499 0.106,1.895 0.053,0.829 0.075,1.65 0.066,2.508 l -0.004,0.247 c -0.001,0.057 0.021,0.16 0.062,0.199 0.04,0.038 0.092,0.104 0.147,0.104 h 0.005 c 0.581,-0.048 1.146,-0.16 1.681,-0.336 1.575,-0.519 3.058,-1.535 4.067,-2.79 2.383,-2.962 3.133,-7.02 3.794,-10.6 L 0.215,67.369 c 0.088,-0.474 0.5,-0.818 0.982,-0.818 0.061,0 0.119,0.005 0.18,0.016 0.266,0.049 0.494,0.198 0.645,0.418 0.152,0.22 0.208,0.486 0.16,0.747 l -7.359,39.834 c -0.67,3.625 -1.504,8.135 -4.202,11.49 -1.812,2.251 -4.756,3.782 -7.5,3.899 -0.098,0.005 -0.178,0.079 -0.19,0.177 -0.053,0.454 -0.114,0.9 -0.193,1.322 0.666,3.182 2.087,5.045 4.223,5.618 0.382,0.103 0.778,0.155 1.178,0.155 2.556,0 4.857,-2.046 5.914,-3.946 1.46,-2.631 1.76,-5.836 2.05,-8.935 l 0.031,-0.338 C -1.602,92.899 4.72,68.253 14.413,45.732 14.67,45.135 14.935,44.54 15.198,43.946 l 0.214,-0.481 c 0.794,-0.168 1.59,-0.321 2.387,-0.46 4.407,-0.771 9.103,-1.161 13.959,-1.161 14.184,0 28.601,3.199 42.544,6.294 3.313,0.736 6.599,1.465 9.871,2.151 0.027,0.01 0.056,0.017 0.086,0.017 0.016,0 0.033,-0.002 0.049,-0.007 0.61,0.146 1.268,0.281 1.934,0.416 6.274,1.263 11.909,2.134 17.229,2.662 0.706,0.07 1.415,0.136 2.128,0.194 3.252,0.271 6.426,0.408 9.435,0.408 15.528,0 28.35,-3.667 38.109,-10.898 0.174,-0.129 0.38,-0.197 0.595,-0.197 0.316,0 0.616,0.151 0.804,0.405 0.327,0.443 0.233,1.071 -0.208,1.4 -10.114,7.494 -23.337,11.292 -39.301,11.292 -3.255,0 -6.696,-0.157 -10.227,-0.468 -0.006,-10e-4 -0.012,-10e-4 -0.018,-10e-4 -0.076,0 -0.146,0.044 -0.181,0.114 -4.233,8.842 -8.522,18.039 -12.749,27.337 -0.262,0.578 -2.114,4.691 -2.114,4.691 -1.066,2.358 -2.132,4.714 -3.178,7.071 -4.519,10.177 -8.422,19.406 -10.417,29.272 -4.55,22.502 2.242,47.249 17.726,64.583 0.039,0.043 0.093,0.066 0.149,0.066 0.015,0 0.029,-10e-4 0.043,-0.004 6.196,-1.363 11.25,-3.565 15.454,-6.733 7.84,-5.909 13.25,-15.808 15.235,-27.875 0.587,-3.569 0.911,-7.46 0.99,-11.896 0,-0.032 -0.015,-0.081 -0.027,-0.11 0.023,-1.252 0.012,-2.632 -0.023,-4.054 L 175.215,47.722 C 181.104,36.991 185.902,25.757 181.184,16.293 176.117,6.133 162.731,3.657 151.636,2.636 134.073,1.018 116.143,0.197 98.342,0.197 c -5.095,0 -10.267,0.068 -15.371,0.2 L 80.972,0.449 C 60.943,1.04 40.718,2.688 20.857,5.345 c 0,0 -2.646,0.359 -2.671,0.362 C 17.454,5.14 16.564,4.581 15.564,4.046 13.949,3.181 12.123,2.415 10.136,1.77 6.624,0.629 3.024,0 0,0" /></g><g
           transform="translate(329.5664,199.0781)"
           id="g56"><path
             id="path58"
             style="fill:#ee4036;fill-opacity:1;fill-rule:nonzero;stroke:none"
             d="m 0,0 c -0.053,0 -0.104,0.021 -0.143,0.06 -2.626,2.657 -5.479,4.834 -8.48,6.467 -5.87,3.195 -12.833,4.815 -20.695,4.815 -3.685,0 -7.536,-0.358 -11.447,-1.064 C -49.059,8.779 -57.124,5.943 -64.922,3.2 -66.004,2.819 -67.071,2.451 -68.138,2.082 l -1.141,-0.394 c -22.623,2.575 -44.619,8.306 -65.467,17.025 l -0.558,0.233 c -0.606,0.252 -1.212,0.507 -1.815,0.766 -0.078,0.034 -0.127,0.114 -0.12,0.199 0.482,6.939 0.713,14.111 0.694,21.402 0,0.109 0.087,0.198 0.195,0.201 21.776,0.588 43.715,2.408 65.205,5.41 0.009,10e-4 0.019,0.002 0.028,0.002 0.043,0 0.086,-0.015 0.121,-0.041 2.177,-1.666 5.162,-3.164 8.406,-4.218 1.78,-0.579 5.321,-1.549 9.028,-1.549 2.996,0 5.276,0.64 6.777,1.901 3.665,3.079 10.068,10.043 10.817,16.616 0.011,0.101 0.097,0.178 0.198,0.178 h 0.006 c 0.104,-0.003 0.188,-0.085 0.194,-0.189 0.435,-6.765 7.096,-13.302 11.028,-16.605 1.486,-1.248 3.955,-1.908 7.143,-1.908 3.243,0 7.07,0.663 10.778,1.868 3.115,1.012 5.77,2.256 7.892,3.697 0.033,0.023 0.072,0.035 0.112,0.035 0.009,0 0.018,-10e-4 0.027,-0.002 20.487,-2.806 41.35,-4.54 62.005,-5.155 0.107,-0.004 0.193,-0.092 0.194,-0.2 0.021,-3.566 0.078,-6.829 0.175,-9.973 0.002,-0.066 -0.028,-0.128 -0.081,-0.167 -0.4,-0.296 -0.801,-0.592 -1.204,-0.885 -0.824,-0.6 -1.655,-1.193 -2.491,-1.78 C 41.939,15.848 21.208,5.979 0.055,0.008 0.036,0.003 0.019,0 0,0" /></g><g
           transform="translate(286.3745,386.0752)"
           id="g60"><path
             id="path62"
             style="fill:#dfb28b;fill-opacity:1;fill-rule:nonzero;stroke:none"
             d="m 0,0 c -10.459,0 -20.709,5.219 -26.112,13.295 -4.671,6.98 -6.318,16.058 -4.897,26.979 0.004,0.035 0.019,0.07 0.04,0.098 l 0.011,0.286 c 0.006,0.055 0.036,0.105 0.081,0.137 0.034,0.025 0.075,0.038 0.117,0.038 0.013,0 0.026,-10e-4 0.039,-0.004 l 1.708,-0.345 -0.704,13.559 c -0.003,0.063 0.024,0.125 0.073,0.165 0.036,0.03 0.081,0.046 0.127,0.046 0.016,0 0.032,-0.002 0.048,-0.006 8.844,-2.206 17.96,-3.323 27.094,-3.323 h 16 c 9.147,0 18.274,1.12 27.126,3.331 0.017,0.004 0.033,0.006 0.049,0.006 0.045,0 0.09,-0.015 0.125,-0.044 0.049,-0.039 0.077,-0.099 0.075,-0.161 L 40.601,39.773 c 0.67,0.142 2.533,0.523 2.533,0.523 0.013,0.002 0.027,0.004 0.039,0.004 0.056,0 0.111,-0.024 0.149,-0.067 0.048,-0.052 0.063,-0.126 0.042,-0.193 -0.253,-0.808 -0.518,-1.63 -0.81,-2.508 -0.01,-0.03 -0.033,-0.066 -0.055,-0.088 C 41.91,35.664 41.21,33.799 40.402,31.808 37.228,24.194 33.31,17.904 28.735,13.083 21.108,5.045 10.947,0.281 0.856,0.012 0.571,0.004 0.285,0 0,0" /></g><g
           transform="translate(275.9585,242.1777)"
           id="g64"><path
             id="path66"
             style="fill:#dfb28b;fill-opacity:1;fill-rule:nonzero;stroke:none"
             d="m 0,0 c -2.513,0 -5.405,0.509 -8.364,1.47 -2.263,0.735 -4.395,1.7 -6.163,2.789 -0.877,0.539 -1.662,1.107 -2.333,1.689 C -16.911,5.941 -19.379,5.604 -19.379,5.604 -40.369,2.73 -61.754,0.985 -82.938,0.419 l -1.999,-0.052 c -4.55,-0.106 -9.167,-0.16 -13.726,-0.16 -17.79,0 -35.728,0.821 -53.316,2.44 -11.096,1.022 -24.482,3.498 -29.549,13.658 -4.718,9.462 0.08,20.697 5.968,31.429 l 49.519,90.252 c -0.034,1.414 -0.044,2.795 -0.03,4.103 0.05,4.371 0.367,8.282 0.971,11.956 1.983,12.067 7.394,21.967 15.235,27.876 4.204,3.168 9.258,5.371 15.453,6.733 0.014,0.003 0.029,0.005 0.043,0.005 0.056,0 0.111,-0.024 0.149,-0.067 15.484,-17.332 22.277,-42.079 17.727,-64.583 -1.996,-9.871 -5.899,-19.098 -10.418,-29.273 -2.094,-4.716 -4.442,-9.912 -7.177,-15.882 l -1.298,-2.813 c -3.45,-7.49 -6.579,-14.164 -9.566,-20.403 -0.033,-0.071 -0.103,-0.115 -0.18,-0.115 -0.006,0 -0.012,0 -0.017,10e-4 -3.533,0.312 -6.974,0.469 -10.228,0.469 -15.964,0 -29.186,-3.799 -39.301,-11.293 -0.443,-0.328 -0.536,-0.956 -0.208,-1.399 0.187,-0.253 0.488,-0.405 0.803,-0.405 0.215,0 0.421,0.068 0.597,0.197 9.758,7.231 22.58,10.898 38.109,10.898 3.008,0 6.183,-0.137 9.434,-0.407 0.713,-0.06 1.422,-0.124 2.128,-0.194 4.424,-0.441 9.009,-1.109 14.017,-2.042 0.714,-0.133 1.417,-0.268 2.113,-0.405 1.043,-0.205 2.071,-0.413 3.071,-0.622 3.303,-0.692 6.623,-1.428 9.969,-2.172 13.941,-3.094 28.357,-6.294 42.543,-6.294 4.856,0 9.552,0.391 13.958,1.162 0.798,0.138 1.594,0.292 2.388,0.46 l 0.179,0.401 c 0.276,0.621 0.551,1.242 0.82,1.867 9.694,22.521 16.015,47.167 18.279,71.275 l 0.031,0.335 c 0.29,3.1 0.589,6.306 2.05,8.936 1.057,1.901 3.358,3.947 5.913,3.947 0.4,0 0.796,-0.051 1.178,-0.154 2.137,-0.574 3.557,-2.438 4.223,-5.539 -0.078,-0.501 -0.139,-0.947 -0.192,-1.401 -0.012,-0.098 -0.092,-0.172 -0.19,-0.177 -2.744,-0.117 -5.688,-1.649 -7.5,-3.9 C 6.337,115.714 5.503,111.204 4.833,107.58 L -2.526,67.744 c -0.1,-0.542 0.259,-1.064 0.8,-1.165 0.064,-0.012 0.124,-0.016 0.184,-0.016 0.482,0 0.895,0.343 0.982,0.818 l 7.359,39.833 c 0.662,3.58 1.411,7.638 3.795,10.599 1.01,1.256 2.493,2.273 4.067,2.791 0.527,0.174 1.093,0.288 1.68,0.336 0.006,0.001 0.012,0.001 0.017,0.001 0.051,0 0.1,-0.019 0.137,-0.054 0.041,-0.039 0.064,-0.093 0.063,-0.15 l -0.007,-0.347 c -0.008,-0.859 0.014,-1.679 0.067,-2.508 0.025,-0.386 0.045,-0.774 0.065,-1.161 l 0.04,-0.736 c 0.005,-0.091 -0.054,-0.175 -0.142,-0.202 -0.207,-0.062 -0.374,-0.176 -0.496,-0.339 -0.024,-0.031 -0.056,-0.054 -0.093,-0.068 -2.174,-0.775 -4.104,-2.382 -5.435,-4.525 C 8.8,108.022 8.134,104.668 7.546,101.707 L 0.252,64.975 C 0.2,64.713 0.253,64.446 0.402,64.225 0.55,64.003 0.775,63.852 1.037,63.8 1.1,63.786 1.166,63.78 1.234,63.78 c 0.475,0 0.887,0.339 0.98,0.806 l 7.294,36.734 c 0.583,2.931 1.185,5.958 2.748,8.476 1.065,1.715 2.65,3.054 4.347,3.674 0.022,0.009 0.046,0.012 0.069,0.012 0.038,0 0.077,-0.011 0.11,-0.033 0.053,-0.035 0.086,-0.093 0.09,-0.156 l 0.07,-1.269 C 16.225,97.045 16.36,82.046 16.491,67.542 16.64,51.06 16.793,34.028 15.71,17.22 15.372,11.973 10.2,5.367 5.537,1.45 4.409,0.502 2.494,0 0,0" /></g><g
           transform="translate(426.2187,135.958)"
           id="g68"><path
             id="path70"
             style="fill:#dfb28b;fill-opacity:1;fill-rule:nonzero;stroke:none"
             d="m 0,0 c -1.256,0 -2.559,0.164 -3.769,0.476 -1.203,0.309 -2.451,0.765 -3.927,1.436 -0.03,0.013 -0.068,0.048 -0.088,0.073 -1.085,0.5 -2.277,1.153 -3.592,1.956 -1.288,0.014 -2.576,0.05 -3.864,0.093 -18.874,0.631 -37.417,4.377 -55.114,11.135 -1.343,0.514 -2.678,1.044 -4.084,1.602 l -0.189,0.076 c -1.208,-0.101 -2.588,-0.236 -4.129,-0.425 -1.097,-0.137 -2.283,-0.314 -3.533,-0.527 -0.012,-0.002 -0.024,-0.003 -0.034,-0.003 -0.049,0 -0.097,0.018 -0.134,0.05 -0.045,0.041 -0.069,0.101 -0.065,0.162 0.395,6.739 0.179,12.728 -0.662,18.311 -0.966,6.422 -2.904,12.44 -5.759,17.889 -0.028,0.05 -0.031,0.111 -0.01,0.165 0.02,0.053 0.064,0.095 0.118,0.116 3.123,1.13 6.229,1.703 9.23,1.703 0.264,0 0.53,-0.005 0.796,-0.014 0.547,-0.017 1.129,-0.062 1.83,-0.138 0.811,-0.088 1.642,-0.217 2.472,-0.383 4.967,-0.991 9.772,-3.213 14.011,-5.172 0.142,-0.067 0.283,-0.099 0.429,-0.099 0.388,0 0.744,0.228 0.907,0.581 0.112,0.243 0.124,0.514 0.031,0.764 -0.092,0.251 -0.276,0.451 -0.518,0.564 -3.71,1.716 -7.916,3.662 -12.345,4.831 -0.077,0.02 -0.135,0.085 -0.147,0.163 -0.012,0.079 0.024,0.157 0.091,0.2 2.826,1.768 6.252,2.903 9.907,3.285 1.096,0.114 2.245,0.172 3.417,0.172 5.205,0 10.41,-1.109 15.443,-2.182 l 16.536,-3.519 c 1.985,0.347 3.911,0.626 5.722,0.827 3.41,0.38 6.886,0.572 10.331,0.572 9.758,0 19.359,-1.507 28.535,-4.479 0.086,-0.029 0.141,-0.11 0.138,-0.199 -0.003,-0.089 -0.067,-0.166 -0.154,-0.186 -0.738,-0.173 -1.476,-0.347 -2.223,-0.538 -0.258,-0.067 -0.475,-0.23 -0.612,-0.46 -0.136,-0.23 -0.174,-0.499 -0.107,-0.758 0.114,-0.442 0.512,-0.752 0.969,-0.752 0.083,0 0.166,0.011 0.248,0.032 2.008,0.517 4.151,1.031 6.222,1.287 0.927,0.115 1.767,0.17 2.57,0.17 0.162,0 0.481,-0.006 0.501,-0.007 1.792,-0.055 3.344,-0.401 4.74,-1.057 4.028,-1.893 6.361,-6.838 5.199,-11.022 -0.64,-2.305 -2.405,-4.365 -4.724,-5.511 -0.614,-0.304 -1.27,-0.54 -1.95,-0.7 -0.64,-0.152 -1.284,-0.228 -1.913,-0.228 -0.528,0 -1.05,0.055 -1.548,0.162 -3.997,0.861 -6.902,4.541 -8.986,7.651 -0.187,0.277 -0.498,0.443 -0.833,0.443 -0.198,0 -0.39,-0.059 -0.555,-0.169 -0.458,-0.308 -0.581,-0.93 -0.274,-1.388 2.294,-3.423 5.529,-7.48 10.226,-8.492 0.632,-0.136 1.288,-0.205 1.952,-0.205 0.944,0 1.929,0.15 2.93,0.446 0.019,0.006 0.038,0.009 0.057,0.009 0.069,0 0.136,-0.036 0.172,-0.099 0.645,-1.09 1.041,-2.02 1.243,-2.923 0.363,-1.624 0.046,-3.833 -1.509,-4.849 -0.679,-0.442 -1.589,-0.658 -2.784,-0.658 -0.152,0 -0.304,0.004 -0.451,0.01 -0.184,0.006 -0.365,0.016 -0.537,0.029 -0.727,0.053 -1.455,0.141 -2.166,0.263 -5.06,0.867 -9.733,3.419 -13.159,7.189 -0.188,0.207 -0.458,0.326 -0.74,0.326 -0.25,0 -0.488,-0.092 -0.673,-0.26 -0.406,-0.37 -0.436,-1.004 -0.067,-1.413 3.965,-4.359 9.618,-7.266 15.511,-7.976 0.107,-0.013 0.184,-0.108 0.175,-0.215 -0.041,-0.487 -0.169,-0.926 -0.371,-1.27 -0.555,-0.938 -1.561,-1.68 -2.991,-2.205 -0.228,-0.083 -0.449,-0.16 -0.659,-0.219 -0.438,-0.128 -0.913,-0.234 -1.451,-0.321 -0.658,-0.104 -1.332,-0.158 -2.005,-0.158 -3.441,0 -6.89,1.384 -9.225,3.702 -0.187,0.187 -0.436,0.289 -0.704,0.289 -0.268,0 -0.52,-0.104 -0.71,-0.295 -0.187,-0.189 -0.29,-0.44 -0.289,-0.707 0.001,-0.268 0.106,-0.518 0.295,-0.707 2.754,-2.733 6.608,-4.301 10.573,-4.301 0.324,0 0.683,0.02 1.065,0.049 0.005,10e-4 0.011,10e-4 0.015,10e-4 0.066,0 0.127,-0.032 0.164,-0.086 0.041,-0.058 0.047,-0.134 0.017,-0.199 C 17.339,9.403 15.394,7.488 13.119,6.532 12.675,6.346 12.205,6.189 11.723,6.07 11.084,5.911 10.367,5.822 9.529,5.798 L 9.221,5.793 C 6.546,5.793 3.961,6.761 2.126,8.446 1.941,8.616 1.7,8.71 1.449,8.71 1.171,8.71 0.902,8.592 0.712,8.387 0.34,7.981 0.367,7.347 0.772,6.974 2.717,5.186 5.308,4.068 8.066,3.825 8.14,3.818 8.204,3.772 8.232,3.705 8.262,3.637 8.251,3.559 8.205,3.501 7.906,3.128 7.619,2.814 7.326,2.545 5.033,0.441 2.076,0 0,0" /></g><g
           transform="translate(243.8608,286.0371)"
           id="g72"><path
             id="path74"
             style="fill:#ee4036;fill-opacity:1;fill-rule:nonzero;stroke:none"
             d="m 0,0 c -14.003,0 -28.302,3.176 -42.131,6.246 -3.337,0.741 -6.664,1.48 -9.975,2.173 -1.218,0.255 -2.473,0.508 -3.752,0.756 -0.081,0.015 -0.144,0.079 -0.159,0.159 -1.429,7.632 -3.155,15.236 -5.131,22.603 -0.012,0.045 -0.008,0.093 0.012,0.136 3.158,6.864 5.748,12.58 8.151,17.991 4.567,10.288 8.514,19.622 10.549,29.689 4.559,22.541 -2.054,47.543 -17.257,65.248 -0.047,0.055 -0.061,0.131 -0.036,0.199 0.024,0.068 0.083,0.117 0.154,0.129 4.495,0.768 9.407,1.126 15.458,1.126 1.139,0 2.269,-0.013 3.386,-0.034 16.726,-0.314 33.601,-2.034 50.159,-5.114 0.105,-0.019 0.176,-0.119 0.161,-0.224 -1.615,-11.631 0.118,-21.342 5.151,-28.862 5.764,-8.617 16.669,-14.183 27.783,-14.183 0.3,0 0.601,0.004 0.901,0.012 10.618,0.285 21.288,5.277 29.276,13.694 3.968,4.183 7.456,9.405 10.364,15.523 0.63,1.326 1.215,2.662 1.789,4.085 1.22,2.94 2.329,6.085 3.325,9.382 0.022,0.071 0.08,0.124 0.154,0.138 17.277,3.354 34.935,5.22 52.484,5.549 1.111,0.021 2.237,0.033 3.371,0.033 6.061,0 10.978,-0.358 15.472,-1.125 0.071,-0.013 0.131,-0.062 0.155,-0.13 0.024,-0.068 0.01,-0.143 -0.037,-0.198 -15.202,-17.707 -21.815,-42.708 -17.257,-65.248 2.036,-10.066 5.982,-19.4 10.55,-29.689 1.643,-3.699 3.316,-7.402 4.996,-11.104 0.018,-0.039 0.022,-0.083 0.014,-0.125 -2.156,-9.977 -3.936,-20.123 -5.291,-30.156 -0.012,-0.085 -0.075,-0.153 -0.159,-0.17 L 152.19,8.418 C 148.952,7.74 145.697,7.019 142.432,6.295 L 142.216,6.247 C 128.384,3.177 114.081,0.001 100.082,0.001 94.8,0.001 89.953,0.441 85.262,1.348 85.198,1.36 85.143,1.403 85.117,1.464 75.195,24.155 68.743,49.013 66.458,73.349 l -0.033,0.334 c -0.308,3.305 -0.628,6.722 -2.293,9.72 -1.377,2.478 -4.274,4.979 -7.642,4.979 -0.579,0 -1.157,-0.076 -1.716,-0.226 -1.971,-0.529 -3.503,-1.839 -4.553,-3.894 -0.034,-0.068 -0.103,-0.11 -0.179,-0.11 -0.075,0 -0.144,0.042 -0.178,0.11 -1.05,2.055 -2.582,3.366 -4.554,3.894 -0.559,0.151 -1.137,0.227 -1.717,0.227 -3.368,0 -6.264,-2.501 -7.64,-4.98 -1.665,-2.998 -1.985,-6.419 -2.294,-9.726 L 33.628,73.348 C 31.343,49.013 24.891,24.156 14.969,1.464 14.942,1.403 14.888,1.36 14.824,1.348 10.128,0.441 5.279,0 0,0" /></g><g
           transform="translate(249.6523,88.1611)"
           id="g76"><path
             id="path78"
             style="fill:#dfb28b;fill-opacity:1;fill-rule:nonzero;stroke:none"
             d="m 0,0 c -1.686,0.249 -3.346,0.707 -4.933,1.361 -0.082,0.034 -0.131,0.118 -0.122,0.206 0.009,0.088 0.076,0.16 0.163,0.175 2.154,0.394 4.047,1.201 5.283,1.776 4.317,2.005 8.213,4.731 11.579,8.098 0.189,0.189 0.293,0.44 0.293,0.707 0,0.268 -0.104,0.519 -0.293,0.707 -0.189,0.19 -0.44,0.293 -0.707,0.293 -0.267,0 -0.518,-0.103 -0.707,-0.293 C 7.356,9.829 3.653,7.239 -0.452,5.332 -2.953,4.171 -4.992,3.594 -6.87,3.516 c 0,0 -0.125,-0.002 -0.126,-0.002 -0.093,0 -0.173,0.064 -0.195,0.154 -0.021,0.092 0.024,0.186 0.109,0.227 4.698,2.23 8.606,5.717 11.302,10.084 0.14,0.228 0.183,0.497 0.122,0.756 -0.062,0.26 -0.221,0.481 -0.447,0.62 -0.159,0.099 -0.341,0.151 -0.526,0.151 -0.348,0 -0.667,-0.178 -0.852,-0.476 C -0.442,10.236 -4.999,6.564 -10.315,4.689 -10.556,4.604 -10.781,4.537 -11.005,4.471 L -11.144,4.43 c -1.045,-0.313 -1.953,-0.472 -2.773,-0.485 l -0.302,-0.004 c -0.129,0 -0.254,0.003 -0.376,0.014 -1.308,0.114 -2.454,0.683 -3.145,1.56 -0.047,0.059 -0.056,0.14 -0.024,0.209 0.033,0.068 0.1,0.113 0.176,0.115 1.161,0.031 2.367,0.341 3.488,0.894 1.772,0.873 3.191,2.179 4.563,3.442 l 10.582,9.741 c 0.406,0.373 0.432,1.008 0.059,1.413 -0.189,0.205 -0.458,0.322 -0.737,0.322 -0.251,0 -0.492,-0.093 -0.676,-0.263 l -10.582,-9.742 c -1.267,-1.167 -2.578,-2.373 -4.094,-3.12 -0.925,-0.457 -1.89,-0.699 -2.79,-0.699 -0.179,0 -0.355,0.01 -0.527,0.028 -0.401,0.044 -0.781,0.138 -1.096,0.27 -0.185,0.102 -0.397,0.359 -0.652,0.775 -0.419,0.691 -0.917,1.788 -1.403,3.089 -0.018,0.051 -0.016,0.107 0.007,0.156 0.023,0.048 0.065,0.086 0.115,0.104 1.706,0.589 3.225,1.63 4.444,2.466 l 10.764,7.368 c 0.221,0.15 0.369,0.378 0.418,0.642 0.049,0.262 -0.006,0.528 -0.157,0.748 -0.187,0.272 -0.496,0.435 -0.826,0.435 -0.201,0 -0.396,-0.06 -0.564,-0.175 l -10.77,-7.372 c -1.291,-0.884 -2.627,-1.8 -4.138,-2.287 -0.609,-0.191 -1.222,-0.289 -1.823,-0.289 l -0.149,0.002 c -0.778,0.023 -1.443,0.2 -1.982,0.527 -1.982,1.204 -2.219,4.082 -2.228,5.263 -0.025,3.037 0.983,6.171 2.839,8.823 0.034,0.049 0.087,0.079 0.146,0.085 36.371,3.309 72.458,9.893 107.258,19.569 0.018,0.005 0.037,0.008 0.054,0.008 0.074,0 0.144,-0.041 0.179,-0.111 2.987,-5.902 4.74,-12.505 5.071,-19.094 C 87.21,28.749 87.128,28.656 87.021,28.648 79.998,28.113 72.892,27.149 65.896,25.782 L 65.188,25.646 C 64.763,25.565 64.34,25.484 63.919,25.397 45.652,21.624 28.211,15.199 12.082,6.304 11.224,5.83 10.368,5.35 9.51,4.868 6.66,3.268 3.43,1.453 0.109,0.015 0.083,0.004 0.057,-0.002 0.029,-0.002 0.02,-0.002 0.01,-0.001 0,0" /></g><g
           transform="translate(337.2363,98.3252)"
           id="g80"><path
             id="path82"
             style="fill:#d0d2d3;fill-opacity:1;fill-rule:nonzero;stroke:none"
             d="m 0,0 c -1.78,0 -3.521,0.146 -5.174,0.433 -7.291,1.267 -14.023,6.741 -16.009,13.015 -0.017,0.055 -0.01,0.114 0.019,0.163 0.029,0.049 0.078,0.083 0.134,0.094 6.804,1.318 13.701,2.251 20.498,2.774 0.006,0.001 0.011,0.001 0.015,0.001 0.05,0 0.099,-0.019 0.136,-0.053 0.041,-0.038 0.065,-0.091 0.065,-0.147 -0.003,-1.447 -0.068,-2.854 -0.192,-4.184 -0.051,-0.548 0.355,-1.037 0.904,-1.089 h 0.009 c 0.607,0 1.031,0.389 1.079,0.903 0.156,1.662 0.219,3.435 0.189,5.268 0.07,0.223 0.094,0.357 0.086,0.483 -0.008,0.11 -0.05,0.219 -0.095,0.321 -0.26,7.018 -2.026,14.006 -5.126,20.282 -0.026,0.053 -0.027,0.116 -0.003,0.17 0.025,0.054 0.071,0.095 0.128,0.111 2.135,0.602 4.267,1.216 6.393,1.842 l 2.103,0.63 c 0.099,0.717 0.195,1.435 0.286,2.154 0.367,2.879 0.643,5.531 0.844,8.107 0.007,0.091 0.074,0.165 0.164,0.182 2.54,0.456 5.105,0.782 7.623,0.967 19.824,-8.085 41.536,-12.517 62.88,-12.829 0.035,-10e-4 0.069,-0.011 0.1,-0.029 2.874,-1.714 5.308,-2.794 7.66,-3.398 1.406,-0.361 2.83,-0.544 4.231,-0.544 3.455,0 6.549,1.093 8.712,3.076 0.824,0.756 1.534,1.673 2.11,2.723 0.03,0.055 0.085,0.094 0.147,0.102 1.073,0.152 2.069,0.418 2.961,0.793 3.25,1.368 5.852,4.249 6.96,7.706 0.021,0.067 0.074,0.117 0.142,0.134 l 0.277,0.07 c 2.246,0.656 3.909,1.806 4.807,3.328 0.358,0.605 0.587,1.37 0.647,2.152 0.008,0.104 0.094,0.185 0.197,0.185 1.558,0.012 2.798,0.333 3.791,0.981 2.365,1.543 2.893,4.607 2.366,6.96 -0.229,1.022 -0.655,2.073 -1.3,3.215 -0.027,0.047 -0.034,0.102 -0.019,0.153 0.015,0.052 0.05,0.096 0.097,0.121 2.682,1.454 4.651,3.839 5.402,6.542 1.411,5.082 -1.404,11.079 -6.277,13.368 -1.807,0.849 -3.794,1.261 -6.076,1.261 -0.723,0 -1.474,-0.041 -2.294,-0.127 -10.608,3.981 -21.775,5.992 -33.284,5.992 -5.361,0 -10.741,-0.453 -15.989,-1.347 L 46.117,96.45 c -5.138,1.095 -10.45,2.226 -15.835,2.226 -1.248,0 -2.474,-0.062 -3.647,-0.185 -4.866,-0.507 -9.239,-2.205 -12.649,-4.912 -0.035,-0.028 -0.079,-0.044 -0.124,-0.044 -0.01,0 -0.021,0.001 -0.032,0.003 -1.267,0.209 -2.441,0.329 -3.589,0.367 -0.316,0.012 -0.631,0.017 -0.944,0.017 -3.332,0 -6.762,-0.655 -10.195,-1.947 -0.023,-0.009 -0.047,-0.013 -0.071,-0.013 -0.069,0 -0.135,0.036 -0.173,0.099 -1.445,2.459 -3.077,4.742 -4.849,6.786 -0.044,0.051 -0.06,0.122 -0.04,0.187 0.018,0.066 0.07,0.116 0.135,0.136 21.695,6.272 42.87,16.58 61.236,29.808 0.034,0.024 0.075,0.038 0.117,0.038 0.006,0 2.671,-0.248 2.784,-0.258 19.227,-1.799 41.543,-4.149 63.131,-9.306 11.217,-2.679 24.992,-7.124 32.014,-17.806 9.444,-14.363 2.86,-33.969 -8.129,-45.125 C 133.258,44.337 116.168,38.296 101.09,32.966 L 22.674,5.243 C 15.723,2.785 7.843,0 0,0" /></g><g
           transform="translate(169.2568,116.1279)"
           id="g84"><path
             id="path86"
             style="fill:#d0d2d3;fill-opacity:1;fill-rule:nonzero;stroke:none"
             d="m 0,0 c -15.2,0 -30.497,0.589 -45.464,1.751 -12.081,0.937 -26.722,3.401 -32.748,14.228 -3.898,7.005 -3.144,16.919 1.921,25.256 4.856,7.994 12.593,13.849 19.463,18.707 23.885,16.893 50.015,30.384 77.663,40.098 0,0 1.3,0.457 1.8,0.631 0.022,0.007 0.044,0.011 0.066,0.011 0.024,0 0.047,-0.005 0.07,-0.013 h 0.003 c 0.043,0 0.085,-0.013 0.119,-0.041 19.99,-8.575 41.13,-14.414 62.834,-17.361 0.092,-0.013 0.164,-0.088 0.172,-0.181 C 85.907,82.993 85.85,82.907 85.762,82.878 58.732,74.089 30.68,69.633 2.383,69.633 c -1.274,0 -2.548,0.009 -3.823,0.027 l -1.671,0.027 c -1.264,0.02 -2.54,0.04 -3.82,0.04 -3.454,0 -7.523,-0.131 -11.511,-1.107 -6.472,-1.582 -11.513,-5.27 -13.831,-10.119 -0.115,-0.24 -0.129,-0.512 -0.04,-0.765 0.089,-0.252 0.271,-0.455 0.511,-0.569 0.135,-0.064 0.28,-0.097 0.429,-0.097 0.384,0 0.739,0.223 0.905,0.569 2.058,4.305 6.614,7.599 12.501,9.038 3.784,0.925 7.715,1.05 11.061,1.05 1.262,0 2.522,-0.02 3.831,-0.041 l 1.607,-0.026 c 1.275,-0.017 2.551,-0.026 3.824,-0.026 29.558,0 58.765,4.792 86.81,14.242 0.417,0.141 0.833,0.286 1.249,0.432 l 1.146,0.398 c 1.412,0.485 2.772,0.954 4.13,1.433 l 0.345,0.119 c 7.743,2.724 15.725,5.532 23.864,7.002 3.796,0.685 7.529,1.034 11.095,1.034 7.521,0 14.16,-1.538 19.736,-4.572 2.582,-1.406 5.045,-3.227 7.321,-5.413 0.521,-0.5 1.044,-1.034 1.595,-1.631 1.994,-2.156 3.817,-4.624 5.418,-7.336 0.34,-0.576 0.673,-1.157 0.993,-1.755 2.85,-5.328 4.782,-11.263 5.742,-17.64 0.848,-5.63 1.043,-11.726 0.596,-18.637 -0.045,-0.694 -0.094,-1.387 -0.151,-2.08 -0.208,-2.572 -0.503,-5.31 -0.903,-8.369 -0.01,-0.078 -0.066,-0.142 -0.142,-0.165 -2.569,-0.761 -5.145,-1.5 -7.727,-2.226 l -1.981,-0.549 C 127.565,12.505 92.34,6.033 56.795,2.686 L 55.885,2.599 C 55.217,2.534 54.549,2.47 53.881,2.411 35.982,0.812 17.854,0 0,0" /></g><g
           transform="translate(360.3232,638.6436)"
           id="g88"><path
             id="path90"
             style="fill:#dfb28b;fill-opacity:1;fill-rule:nonzero;stroke:none"
             d="m 0,0 c 10.108,0 20.094,-1.376 29.678,-4.089 0.823,-0.233 1.641,-0.482 2.459,-0.735 -0.314,0.848 -0.674,1.666 -1.072,2.431 C 29.319,0.98 26.64,4.074 23.52,6.32 16.974,11.027 8.926,12.791 1.203,13.994 c -4.471,0.696 -7.612,0.993 -10.504,0.993 -1.93,0 -3.718,-0.137 -5.465,-0.42 -5.963,-0.963 -11.064,-3.857 -13.999,-7.94 -1.912,-2.66 -2.889,-5.916 -2.752,-9.167 0.03,-0.679 0.111,-1.355 0.239,-2.01 0.414,0.125 0.831,0.238 1.247,0.352 l 0.678,0.187 C -19.884,-1.35 -10.008,0 0,0 m -116.979,14.987 c -2.893,0 -6.035,-0.297 -10.504,-0.993 -7.723,-1.203 -15.771,-2.966 -22.317,-7.675 -3.12,-2.243 -5.8,-5.338 -7.546,-8.712 -0.4,-0.773 -0.76,-1.59 -1.071,-2.431 0.818,0.254 1.635,0.502 2.459,0.735 9.585,2.714 19.57,4.089 29.679,4.089 10.008,0 19.883,-1.349 29.352,-4.011 l 0.694,-0.191 c 0.413,-0.113 0.824,-0.225 1.231,-0.348 0.129,0.662 0.21,1.339 0.238,2.009 0.139,3.251 -0.839,6.507 -2.752,9.168 -2.935,4.083 -8.037,6.977 -13.999,7.94 -1.747,0.283 -3.534,0.42 -5.464,0.42 m 89.659,-84.138 c -0.366,0 -0.699,-0.2 -0.87,-0.521 -0.124,-0.232 -0.15,-0.499 -0.074,-0.75 0.077,-0.252 0.247,-0.459 0.479,-0.582 l 0.889,-0.475 c 0.278,-0.149 0.61,-0.328 1.006,-0.511 0.572,-0.293 1.244,-0.586 2.008,-0.876 l 1.279,-0.505 1.401,-0.46 c 0.986,-0.351 2.088,-0.632 3.225,-0.912 0.989,-0.276 2.012,-0.457 3.097,-0.65 l 0.581,-0.104 1.956,-0.298 c 0.467,-0.06 0.945,-0.1 1.426,-0.141 l 0.584,-0.05 c 1.384,-0.134 2.772,-0.208 4.129,-0.22 l 1.114,0.009 c 1.02,0.006 2.034,0.012 3.019,0.071 1.068,0.063 2.126,0.17 3.148,0.273 l 0.843,0.086 c 1.262,0.169 2.502,0.372 3.681,0.601 1.066,0.186 2.043,0.438 2.987,0.683 l 0.275,0.071 c 0.851,0.199 1.654,0.463 2.299,0.675 l 0.413,0.134 c 0.764,0.234 1.423,0.496 1.953,0.706 l 0.1,0.04 c 0.36,0.137 0.664,0.272 0.916,0.383 l 1.012,0.442 c 0.423,0.186 0.665,0.649 0.574,1.102 -0.093,0.463 -0.501,0.798 -0.972,0.798 -0.064,0 -0.129,-0.006 -0.194,-0.019 l -1.791,-0.357 c -0.565,-0.12 -1.259,-0.241 -2.059,-0.372 -0.793,-0.141 -1.692,-0.287 -2.683,-0.413 -0.922,-0.14 -1.941,-0.255 -3.186,-0.386 -0.811,-0.094 -1.661,-0.157 -2.535,-0.222 l -1.028,-0.078 -0.867,-0.043 c -0.985,-0.05 -1.969,-0.101 -2.973,-0.109 -0.499,-0.016 -1.008,-0.022 -1.517,-0.022 -0.475,0 -0.952,0.005 -1.429,0.009 l -1,0.009 -1.018,0.038 c -0.985,0.035 -1.97,0.071 -2.945,0.149 -0.994,0.053 -1.977,0.149 -2.939,0.243 l -0.869,0.083 -1.045,0.127 c -0.876,0.106 -1.715,0.207 -2.517,0.339 -1.22,0.184 -2.227,0.345 -3.169,0.531 -0.977,0.172 -1.865,0.359 -2.651,0.535 -0.781,0.165 -1.467,0.317 -2.042,0.467 l -1.786,0.443 c -0.077,0.019 -0.156,0.029 -0.235,0.029 m -118.017,-1.593 c -0.411,0 -0.783,-0.258 -0.927,-0.643 -0.092,-0.247 -0.082,-0.516 0.028,-0.756 0.109,-0.24 0.306,-0.423 0.554,-0.516 l 1.025,-0.382 c 0.284,-0.107 0.631,-0.239 1.035,-0.368 0.499,-0.172 1.264,-0.425 2.188,-0.661 0.767,-0.218 1.782,-0.493 2.89,-0.71 1.133,-0.262 2.291,-0.478 3.45,-0.646 1.25,-0.207 2.558,-0.373 3.891,-0.494 0.411,-0.027 0.83,-0.064 1.253,-0.101 0.948,-0.081 1.924,-0.165 2.911,-0.165 0.984,-0.032 1.97,-0.039 2.959,-0.039 l 1.384,0.003 1.038,0.055 c 1.096,0.056 2.188,0.112 3.26,0.205 0.983,0.057 1.951,0.189 2.888,0.316 0.441,0.061 0.86,0.118 1.279,0.168 1.226,0.173 2.485,0.4 3.845,0.692 1.094,0.214 2.207,0.481 3.408,0.818 1.078,0.268 2.032,0.58 2.842,0.852 0.837,0.26 1.56,0.535 2.157,0.771 0.405,0.15 0.743,0.297 1.017,0.416 l 1.006,0.429 c 0.428,0.183 0.673,0.648 0.582,1.105 -0.092,0.463 -0.501,0.798 -0.971,0.798 -0.065,0 -0.13,-0.006 -0.195,-0.019 l -1.892,-0.376 c -1.695,-0.334 -3.335,-0.618 -5.014,-0.867 -1.037,-0.167 -2.168,-0.314 -3.367,-0.464 -0.859,-0.116 -1.757,-0.207 -2.682,-0.301 l -1.084,-0.11 c -2.643,-0.24 -5.41,-0.404 -8.229,-0.488 -1.023,-0.022 -2.044,-0.033 -3.057,-0.033 -1.769,0 -3.513,0.033 -5.184,0.099 l -1.084,0.056 c -0.931,0.046 -1.837,0.091 -2.708,0.163 -1.201,0.089 -2.337,0.178 -3.387,0.293 -1.684,0.163 -3.334,0.362 -5.042,0.608 l -1.924,0.282 c -0.049,0.007 -0.096,0.01 -0.143,0.01 m 107.328,-48.306 c -3.758,0 -7.363,-1.648 -9.642,-4.409 -0.17,-0.206 -0.25,-0.465 -0.225,-0.731 0.025,-0.267 0.152,-0.507 0.358,-0.677 0.18,-0.148 0.406,-0.229 0.636,-0.229 0.301,0 0.582,0.133 0.772,0.363 1.91,2.312 4.926,3.692 8.07,3.692 1.174,0 2.305,-0.195 3.361,-0.58 0.112,-0.04 0.228,-0.06 0.343,-0.06 0.419,0 0.796,0.264 0.938,0.658 0.092,0.251 0.08,0.522 -0.034,0.765 -0.111,0.241 -0.312,0.425 -0.563,0.517 -1.262,0.458 -2.612,0.691 -4.014,0.691 m -41.942,24.184 c -0.055,0 -0.112,-0.004 -0.168,-0.014 -7.994,-1.346 -14.466,-9.036 -14.429,-17.141 0.036,-8.104 6.579,-15.734 14.584,-17.008 0.052,-0.008 0.106,-0.012 0.158,-0.012 0.494,0 0.909,0.354 0.987,0.843 0.086,0.544 -0.286,1.058 -0.831,1.145 -7.08,1.126 -12.866,7.874 -12.898,15.041 -0.034,7.169 5.691,13.969 12.76,15.159 0.543,0.092 0.912,0.609 0.82,1.153 -0.081,0.483 -0.494,0.834 -0.983,0.834 m -34.888,-51.355 c -0.49,0 -0.913,-0.367 -0.985,-0.856 -0.039,-0.264 0.028,-0.527 0.188,-0.742 0.159,-0.214 0.392,-0.353 0.657,-0.391 13.452,-1.968 27.122,-2.966 40.629,-2.966 19.665,0 39.448,2.107 58.799,6.263 0.262,0.057 0.486,0.211 0.63,0.435 0.145,0.224 0.193,0.492 0.138,0.753 -0.098,0.457 -0.51,0.789 -0.979,0.789 -0.068,0 -0.138,-0.007 -0.21,-0.022 -19.21,-4.125 -38.852,-6.218 -58.378,-6.218 -13.411,0 -26.983,0.991 -40.338,2.944 -0.052,0.008 -0.102,0.011 -0.151,0.011 m 38.516,-53.423 c -9.298,0 -18.538,1.168 -27.464,3.471 -0.68,0.175 -1.356,0.363 -2.031,0.551 -37.543,10.461 -67.014,40.371 -76.911,78.057 -0.175,0.67 -0.342,1.345 -0.506,2.021 -1.718,7.088 -2.733,14.452 -3.018,21.887 -0.002,0.033 0.01,0.079 0.024,0.109 -0.069,1.431 -0.094,2.696 -0.094,3.904 l -0.019,1.02 c 0,0.032 0.015,0.083 0.029,0.111 l -0.01,13.062 v 90.807 c 0,2.603 0.097,5.278 0.29,7.951 8.198,13.452 19.347,25.12 32.273,33.833 0.632,0.426 1.268,0.848 1.909,1.26 -0.052,0.766 -0.086,1.532 -0.107,2.299 -0.164,6.272 0.711,12.452 2.601,18.369 0.027,0.085 0.106,0.14 0.19,0.14 0.019,0 0.037,-0.003 0.055,-0.008 28.866,-8.157 51.616,-13.383 75.808,-14.236 2.006,-0.07 4.023,-0.106 5.993,-0.106 18.927,0 46.458,3.315 70.137,19.106 0.034,0.022 0.072,0.034 0.112,0.034 0.024,0 0.048,-0.005 0.071,-0.014 C 3.069,83.961 3.115,83.91 3.131,83.847 4.952,76.768 5.27,69.255 4.05,62.123 3.93,61.421 3.79,60.723 3.641,60.027 L 5.44,58.921 C 13.183,54.117 22.177,48.233 30.187,41.023 39.086,33.013 45.638,24.268 49.66,15.031 l 0.017,-70.159 v -34.546 c -10e-4,-1.817 -0.048,-3.661 -0.138,-5.479 -0.334,-6.744 -1.301,-13.498 -2.873,-20.074 -0.164,-0.689 -0.331,-1.377 -0.509,-2.062 -9.831,-37.839 -39.345,-67.858 -77.023,-78.343 -0.671,-0.187 -1.342,-0.373 -2.018,-0.547 -8.919,-2.299 -18.151,-3.465 -27.439,-3.465 z" /></g></g></g><g
       id="g92"><g
         clip-path="url(#clipPath98)"
         id="g94"><g
           id="g100"><g
             id="g102" /><g
             id="g114"><g
               style="opacity:0.14999402"
               id="g112"
               clip-path="url(#clipPath106)"><g
                 id="g110"
                 transform="translate(462.3246,259.1495)"><path
                   id="path108"
                   style="fill:#404041;fill-opacity:1;fill-rule:nonzero;stroke:none"
                   d="m 0,0 c -41.035,-6.334 -83.41,-5.14 -124.707,-2.496 -7.089,0.454 -14.404,0.267 -21.443,1.258 -3.06,0.431 -6.036,1.404 -9.036,2.124 -1.705,0.409 -3.522,0.853 -4.913,1.979 -1.464,1.185 -2.212,2.918 -2.92,4.614 -1.415,3.39 -2.799,6.838 -3.732,10.393 -0.124,0.476 -0.22,0.957 -0.334,1.434 0.112,-6.597 0.337,-13.191 0.758,-19.724 0.396,-6.145 7.344,-12.609 10.313,-15.104 1.104,-0.927 3.193,-1.438 5.882,-1.438 3.024,0 6.624,0.629 10.135,1.769 1.988,0.646 3.814,1.412 5.429,2.277 1,0.535 1.89,1.094 2.621,1.661 0.026,-0.003 2.672,-0.362 2.672,-0.362 19.861,-2.658 40.086,-4.305 60.114,-4.896 l 1.999,-0.052 c 5.105,-0.132 10.277,-0.2 15.372,-0.2 17.8,0 35.731,0.82 53.293,2.439 11.096,1.021 24.482,3.497 29.548,13.657 1.591,3.191 2.082,6.585 1.832,10.092 C 22.664,4.599 11.587,1.788 0,0" /></g></g></g></g><g
           id="g116"><g
             id="g118" /><g
             id="g130"><g
               style="opacity:0.14999402"
               id="g128"
               clip-path="url(#clipPath122)"><g
                 id="g126"
                 transform="translate(329.5664,199.0781)"><path
                   id="path124"
                   style="fill:#404041;fill-opacity:1;fill-rule:nonzero;stroke:none"
                   d="m 0,0 c -0.053,0 -0.104,0.021 -0.143,0.06 -2.626,2.657 -5.479,4.834 -8.48,6.467 -5.87,3.195 -12.833,4.815 -20.695,4.815 -3.685,0 -7.536,-0.358 -11.447,-1.064 C -49.059,8.779 -57.124,5.943 -64.922,3.2 -66.004,2.819 -67.071,2.451 -68.138,2.082 l -1.141,-0.394 c -22.623,2.575 -44.619,8.306 -65.467,17.025 l -0.558,0.233 c -0.606,0.252 -1.212,0.507 -1.815,0.766 -0.078,0.034 -0.127,0.114 -0.12,0.199 0.482,6.939 0.713,14.111 0.694,21.402 0,0.109 0.087,0.198 0.195,0.201 21.776,0.588 43.715,2.408 65.205,5.41 0.009,10e-4 0.019,0.002 0.028,0.002 0.043,0 0.086,-0.015 0.121,-0.041 2.177,-1.666 5.162,-3.164 8.406,-4.218 1.78,-0.579 5.321,-1.549 9.028,-1.549 2.996,0 5.276,0.64 6.777,1.901 3.665,3.079 10.068,10.043 10.817,16.616 0.011,0.101 0.097,0.178 0.198,0.178 h 0.006 c 0.104,-0.003 0.188,-0.085 0.194,-0.189 0.435,-6.765 7.096,-13.302 11.028,-16.605 1.486,-1.248 3.955,-1.908 7.143,-1.908 3.243,0 7.07,0.663 10.778,1.868 3.115,1.012 5.77,2.256 7.892,3.697 0.033,0.023 0.072,0.035 0.112,0.035 0.009,0 0.018,-10e-4 0.027,-0.002 20.487,-2.806 41.35,-4.54 62.005,-5.155 0.107,-0.004 0.193,-0.092 0.194,-0.2 0.021,-3.566 0.078,-6.829 0.175,-9.973 0.002,-0.066 -0.028,-0.128 -0.081,-0.167 -0.4,-0.296 -0.801,-0.592 -1.204,-0.885 -0.824,-0.6 -1.655,-1.193 -2.491,-1.78 C 41.939,15.848 21.208,5.979 0.055,0.008 0.036,0.003 0.019,0 0,0" /></g></g></g></g><g
           id="g132"><g
             id="g134" /><g
             id="g146"><g
               style="opacity:0.14999402"
               id="g144"
               clip-path="url(#clipPath138)"><g
                 id="g142"
                 transform="translate(286.3745,386.0752)"><path
                   id="path140"
                   style="fill:#404041;fill-opacity:1;fill-rule:nonzero;stroke:none"
                   d="m 0,0 c -10.459,0 -20.709,5.219 -26.112,13.295 -4.671,6.98 -6.318,16.058 -4.897,26.979 0.004,0.035 0.019,0.07 0.04,0.098 l 0.011,0.286 c 0.006,0.055 0.036,0.105 0.081,0.137 0.034,0.025 0.075,0.038 0.117,0.038 0.013,0 0.026,-10e-4 0.039,-0.004 l 1.708,-0.345 -0.704,13.559 c -0.003,0.063 0.024,0.125 0.073,0.165 0.036,0.03 0.081,0.046 0.127,0.046 0.016,0 0.032,-0.002 0.048,-0.006 8.844,-2.206 17.96,-3.323 27.094,-3.323 h 16 c 9.147,0 18.274,1.12 27.126,3.331 0.017,0.004 0.033,0.006 0.049,0.006 0.045,0 0.09,-0.015 0.125,-0.044 0.049,-0.039 0.077,-0.099 0.075,-0.161 L 40.601,39.773 c 0.67,0.142 2.533,0.523 2.533,0.523 0.013,0.002 0.027,0.004 0.039,0.004 0.056,0 0.111,-0.024 0.149,-0.067 0.048,-0.052 0.063,-0.126 0.042,-0.193 -0.253,-0.808 -0.518,-1.63 -0.81,-2.508 -0.01,-0.03 -0.033,-0.066 -0.055,-0.088 C 41.91,35.664 41.21,33.799 40.402,31.808 37.228,24.194 33.31,17.904 28.735,13.083 21.108,5.045 10.947,0.281 0.856,0.012 0.571,0.004 0.285,0 0,0" /></g></g></g></g><g
           id="g148"><g
             id="g150" /><g
             id="g162"><g
               style="opacity:0.14999402"
               id="g160"
               clip-path="url(#clipPath154)"><g
                 id="g158"
                 transform="translate(292.8301,355.4707)"><path
                   id="path156"
                   style="fill:#404041;fill-opacity:1;fill-rule:nonzero;stroke:none"
                   d="m 0,0 c -0.003,0.063 -0.037,0.121 -0.09,0.156 -0.033,0.022 -0.071,0.033 -0.11,0.033 -0.023,0 -0.046,-0.003 -0.069,-0.012 -0.573,-0.21 -1.132,-0.508 -1.664,-0.868 -0.127,-0.822 -0.225,-1.65 -0.304,-2.496 -0.317,-3.381 -0.406,-6.777 -0.654,-10.163 -1.272,-17.299 2.915,-34.629 0.433,-51.88 -0.852,-5.916 -2.354,-11.926 -4.022,-17.668 -1.429,-4.921 -3.199,-10.108 -6.446,-14.156 -2.738,-3.414 -7.374,-6.215 -11.895,-4.961 -3.971,1.102 -5.695,4.786 -6.151,8.54 -9.095,-7.268 -21.365,-9.557 -32.671,-10.695 -11.641,-1.172 -23.357,-0.908 -35.034,-0.605 -16.799,0.435 -33.606,-0.209 -50.403,0.317 -14.193,0.444 -28.565,1.64 -42.411,4.948 -2.157,0.515 -4.322,1.094 -6.467,1.755 5.353,-9.502 18.305,-11.896 29.107,-12.891 17.588,-1.619 35.527,-2.44 53.317,-2.44 4.558,0 9.176,0.054 13.725,0.16 l 1.999,0.052 c 21.185,0.566 42.569,2.311 63.56,5.186 0,0 2.467,0.336 2.518,0.343 0.671,-0.582 1.456,-1.15 2.333,-1.689 1.769,-1.089 3.9,-2.054 6.163,-2.789 2.96,-0.961 5.852,-1.47 8.364,-1.47 2.494,0 4.409,0.502 5.537,1.45 4.663,3.917 9.835,10.523 10.173,15.77 1.084,16.808 0.93,33.84 0.781,50.322 -0.131,14.504 -0.266,29.503 0.451,44.482 z" /></g></g></g></g><g
           id="g164"><g
             id="g166" /><g
             id="g178"><g
               style="opacity:0.14999402"
               id="g176"
               clip-path="url(#clipPath170)"><g
                 id="g174"
                 transform="translate(389.6327,154.7363)"><path
                   id="path172"
                   style="fill:#404041;fill-opacity:1;fill-rule:nonzero;stroke:none"
                   d="m 0,0 c -8.229,3.7 -13.529,11.852 -21.986,15.07 -5.887,2.239 -12.472,1.3 -18.589,0.796 -2.019,-0.166 -4.02,-0.287 -6.01,-0.32 0.829,-5.557 1.042,-11.517 0.649,-18.221 -0.004,-0.06 0.02,-0.12 0.065,-0.161 0.037,-0.032 0.085,-0.051 0.134,-0.051 0.011,0 0.022,10e-4 0.034,0.003 1.25,0.214 2.437,0.391 3.533,0.528 1.541,0.189 2.921,0.324 4.129,0.424 l 0.189,-0.075 c 1.406,-0.558 2.741,-1.089 4.084,-1.602 17.697,-6.758 36.24,-10.504 55.114,-11.135 1.288,-0.043 2.576,-0.079 3.864,-0.093 1.316,-0.804 2.507,-1.456 3.592,-1.956 0.02,-0.025 0.058,-0.06 0.088,-0.073 1.476,-0.671 2.724,-1.127 3.928,-1.437 1.209,-0.311 2.512,-0.475 3.768,-0.475 2.076,0 5.033,0.441 7.326,2.545 0.293,0.269 0.58,0.583 0.879,0.956 0.046,0.057 0.057,0.135 0.027,0.204 -0.028,0.067 -0.092,0.113 -0.166,0.12 -2.758,0.243 -5.349,1.36 -7.293,3.148 -0.406,0.373 -0.433,1.008 -0.061,1.413 0.19,0.206 0.459,0.324 0.737,0.324 0.251,0 0.492,-0.094 0.677,-0.264 1.835,-1.686 4.42,-2.653 7.095,-2.653 l 0.308,0.005 c 0.838,0.024 1.555,0.113 2.194,0.272 0.482,0.119 0.952,0.275 1.396,0.462 2.145,0.902 3.988,2.662 5.128,4.857 C 36.159,-9.346 17.541,-7.886 0,0" /></g></g></g></g><g
           id="g180"><g
             id="g182" /><g
             id="g194"><g
               style="opacity:0.14999402"
               id="g192"
               clip-path="url(#clipPath186)"><g
                 id="g190"
                 transform="translate(253.4141,395.097)"><path
                   id="path188"
                   style="fill:#404041;fill-opacity:1;fill-rule:nonzero;stroke:none"
                   d="m 0,0 c 5.242,-9.558 12.695,-19.16 24.648,-18.969 10.361,0.166 21.12,5.87 29.483,11.575 9.594,6.544 18.074,15.235 24.213,25.096 3.167,5.089 5.91,10.421 8.877,15.611 C 84.399,32.847 81.582,32.356 78.778,31.812 78.705,31.798 78.646,31.745 78.625,31.674 77.629,28.378 76.52,25.232 75.3,22.292 74.726,20.869 74.141,19.533 73.511,18.207 70.603,12.089 67.115,6.867 63.146,2.684 55.159,-5.733 44.488,-10.725 33.871,-11.01 c -0.301,-0.008 -0.601,-0.012 -0.901,-0.012 -11.114,0 -22.019,5.567 -27.783,14.183 -5.033,7.52 -6.766,17.231 -5.151,28.862 0.015,0.106 -0.057,0.205 -0.161,0.224 -3.635,0.676 -7.286,1.275 -10.947,1.82 C -9.98,22.198 -5.697,10.387 0,0" /></g></g></g></g><g
           id="g196"><g
             id="g198" /><g
             id="g210"><g
               style="opacity:0.14999402"
               id="g208"
               clip-path="url(#clipPath202)"><g
                 id="g206"
                 transform="translate(249.6523,88.1611)"><path
                   id="path204"
                   style="fill:#404041;fill-opacity:1;fill-rule:nonzero;stroke:none"
                   d="m 0,0 c -1.686,0.249 -3.346,0.707 -4.933,1.361 -0.082,0.034 -0.131,0.118 -0.122,0.206 0.009,0.088 0.076,0.16 0.163,0.175 2.154,0.394 4.047,1.201 5.283,1.776 4.317,2.005 8.213,4.731 11.579,8.098 0.189,0.189 0.293,0.44 0.293,0.707 0,0.268 -0.104,0.519 -0.293,0.707 -0.189,0.19 -0.44,0.293 -0.707,0.293 -0.267,0 -0.518,-0.103 -0.707,-0.293 C 7.356,9.829 3.653,7.239 -0.452,5.332 -2.953,4.171 -4.992,3.594 -6.87,3.516 c 0,0 -0.125,-0.002 -0.126,-0.002 -0.093,0 -0.173,0.064 -0.195,0.154 -0.021,0.092 0.024,0.186 0.109,0.227 4.698,2.23 8.606,5.717 11.302,10.084 0.14,0.228 0.183,0.497 0.122,0.756 -0.062,0.26 -0.221,0.481 -0.447,0.62 -0.159,0.099 -0.341,0.151 -0.526,0.151 -0.348,0 -0.667,-0.178 -0.852,-0.476 C -0.442,10.236 -4.999,6.564 -10.315,4.689 -10.556,4.604 -10.781,4.537 -11.005,4.471 L -11.144,4.43 c -1.045,-0.313 -1.953,-0.472 -2.773,-0.485 l -0.302,-0.004 c -0.129,0 -0.254,0.003 -0.376,0.014 -1.308,0.114 -2.454,0.683 -3.145,1.56 -0.047,0.059 -0.056,0.14 -0.024,0.209 0.033,0.068 0.1,0.113 0.176,0.115 1.161,0.031 2.367,0.341 3.488,0.894 1.772,0.873 3.191,2.179 4.563,3.442 l 10.582,9.741 c 0.406,0.373 0.432,1.008 0.059,1.413 -0.189,0.205 -0.458,0.322 -0.737,0.322 -0.251,0 -0.492,-0.093 -0.676,-0.263 l -10.582,-9.742 c -1.267,-1.167 -2.578,-2.373 -4.094,-3.12 -0.925,-0.457 -1.89,-0.699 -2.79,-0.699 -0.179,0 -0.355,0.01 -0.527,0.028 -0.401,0.044 -0.781,0.138 -1.096,0.27 -0.185,0.102 -0.397,0.359 -0.652,0.775 -0.419,0.691 -0.917,1.788 -1.403,3.089 -0.018,0.051 -0.016,0.107 0.007,0.156 0.023,0.048 0.065,0.086 0.115,0.104 1.706,0.589 3.225,1.63 4.444,2.466 l 10.764,7.368 c 0.221,0.15 0.369,0.378 0.418,0.642 0.049,0.262 -0.006,0.528 -0.157,0.748 -0.187,0.272 -0.496,0.435 -0.826,0.435 -0.201,0 -0.396,-0.06 -0.564,-0.175 l -10.77,-7.372 c -1.291,-0.884 -2.627,-1.8 -4.138,-2.287 -0.609,-0.191 -1.222,-0.289 -1.823,-0.289 l -0.149,0.002 c -0.778,0.023 -1.443,0.2 -1.982,0.527 -1.982,1.204 -2.219,4.082 -2.228,5.263 -0.025,3.037 0.983,6.171 2.839,8.823 0.034,0.049 0.087,0.079 0.146,0.085 36.371,3.309 72.458,9.893 107.258,19.569 0.018,0.005 0.037,0.008 0.054,0.008 0.074,0 0.144,-0.041 0.179,-0.111 2.987,-5.902 4.74,-12.505 5.071,-19.094 C 87.21,28.749 87.128,28.656 87.021,28.648 79.998,28.113 72.892,27.149 65.896,25.782 L 65.188,25.646 C 64.763,25.565 64.34,25.484 63.919,25.397 45.652,21.624 28.211,15.199 12.082,6.304 11.224,5.83 10.368,5.35 9.51,4.868 6.66,3.268 3.43,1.453 0.109,0.015 0.083,0.004 0.057,-0.002 0.029,-0.002 0.02,-0.002 0.01,-0.001 0,0" /></g></g></g></g><g
           id="g212"><g
             id="g214" /><g
             id="g226"><g
               style="opacity:0.14999402"
               id="g224"
               clip-path="url(#clipPath218)"><g
                 id="g222"
                 transform="translate(336.0947,190.3857)"><path
                   id="path220"
                   style="fill:#404041;fill-opacity:1;fill-rule:nonzero;stroke:none"
                   d="m 0,0 c 0.037,-0.062 0.104,-0.099 0.173,-0.099 0.023,0 0.048,0.004 0.07,0.013 3.434,1.292 6.863,1.947 10.195,1.947 0.314,0 0.628,-0.005 0.945,-0.016 1.147,-0.038 2.321,-0.158 3.589,-0.367 0.01,-0.002 0.021,-0.003 0.032,-0.003 0.045,0 0.089,0.015 0.124,0.044 3.409,2.707 7.782,4.405 12.648,4.912 1.173,0.123 2.4,0.184 3.648,0.184 5.385,0 10.696,-1.131 15.835,-2.225 L 63.466,0.954 c 1.082,0.185 2.173,0.338 3.266,0.485 -2.48,3.721 -3.664,8.281 -2.809,13.743 1.198,7.653 5.459,15.065 11.469,19.909 -5.507,0.603 -10.871,1.125 -16.009,1.606 -0.113,0.01 -2.779,0.258 -2.784,0.258 -0.042,0 -0.083,-0.014 -0.118,-0.038 C 38.115,23.689 16.94,13.382 -4.754,7.109 -4.819,7.09 -4.871,7.039 -4.89,6.974 -4.909,6.908 -4.894,6.838 -4.85,6.786 -3.077,4.742 -1.445,2.459 0,0" /></g></g></g></g><g
           id="g228"><g
             id="g230" /><g
             id="g242"><g
               style="opacity:0.14999402"
               id="g240"
               clip-path="url(#clipPath234)"><g
                 id="g238"
                 transform="translate(465.2192,153.3566)"><path
                   id="path236"
                   style="fill:#404041;fill-opacity:1;fill-rule:nonzero;stroke:none"
                   d="m 0,0 c -4.739,-1.628 -9.961,-3.067 -15.211,-3.707 -0.728,-0.445 -1.566,-0.816 -2.516,-1.093 l -0.277,-0.07 c -0.068,-0.018 -0.12,-0.068 -0.142,-0.134 -1.107,-3.457 -3.71,-6.338 -6.96,-7.706 -0.891,-0.375 -1.888,-0.642 -2.961,-0.793 -0.062,-0.009 -0.117,-0.047 -0.147,-0.103 -0.575,-1.049 -1.285,-1.966 -2.11,-2.722 -2.163,-1.984 -5.257,-3.076 -8.712,-3.076 -1.401,0 -2.825,0.182 -4.231,0.543 -2.352,0.605 -4.786,1.685 -7.66,3.399 -0.03,0.017 -0.065,0.027 -0.1,0.028 -21.344,0.313 -43.055,4.744 -62.88,12.829 -2.518,-0.184 -5.083,-0.51 -7.623,-0.966 -0.09,-0.017 -0.157,-0.091 -0.164,-0.182 -0.201,-2.576 -0.477,-5.229 -0.844,-8.108 -0.091,-0.718 -0.187,-1.436 -0.286,-2.154 l -2.103,-0.63 c -2.126,-0.626 -4.258,-1.239 -6.393,-1.842 -0.056,-0.015 -0.103,-0.056 -0.128,-0.111 -0.024,-0.054 -0.023,-0.116 0.003,-0.17 3.1,-6.275 4.866,-13.263 5.126,-20.281 0.045,-0.103 0.087,-0.212 0.095,-0.321 0.008,-0.126 -0.016,-0.26 -0.086,-0.484 0.03,-1.833 -0.033,-3.605 -0.188,-5.267 -0.049,-0.515 -0.473,-0.904 -1.08,-0.904 h -0.009 c -0.549,0.052 -0.954,0.541 -0.904,1.089 0.124,1.33 0.189,2.738 0.192,4.185 0,0.056 -0.024,0.108 -0.065,0.146 -0.037,0.035 -0.086,0.054 -0.135,0.054 -0.005,0 -0.01,0 -0.016,-10e-4 -6.797,-0.523 -13.693,-1.456 -20.498,-2.774 -0.056,-0.011 -0.105,-0.045 -0.134,-0.094 -0.029,-0.05 -0.036,-0.109 -0.018,-0.163 1.985,-6.275 8.717,-11.748 16.008,-13.016 1.653,-0.287 3.394,-0.432 5.174,-0.432 7.843,0 15.723,2.785 22.674,5.243 l 78.416,27.722 c 15.078,5.33 32.168,11.371 44.167,23.555 2.712,2.753 5.153,6.021 7.153,9.597 C 16.569,6.779 8.476,2.911 0,0" /></g></g></g></g><g
           id="g244"><g
             id="g246" /><g
             id="g258"><g
               style="opacity:0.14999402"
               id="g256"
               clip-path="url(#clipPath250)"><g
                 id="g254"
                 transform="translate(178.3397,187.5108)"><path
                   id="path252"
                   style="fill:#404041;fill-opacity:1;fill-rule:nonzero;stroke:none"
                   d="m 0,0 c -1.625,-0.457 -3.577,-1.008 -5.524,-1.738 20.425,0.089 40.716,2.5 60.583,7.187 C 43.986,5.665 32.896,4.996 21.828,3.833 14.492,3.062 7.113,2 0,0" /></g></g></g></g><g
           id="g260"><g
             id="g262" /><g
             id="g274"><g
               style="opacity:0.14999402"
               id="g272"
               clip-path="url(#clipPath266)"><g
                 id="g270"
                 transform="translate(340.9188,170.8807)"><path
                   id="path268"
                   style="fill:#404041;fill-opacity:1;fill-rule:nonzero;stroke:none"
                   d="m 0,0 c -4.839,-7.866 -12.172,-13.52 -20.54,-17.28 -11.2,-5.031 -23.655,-8.02 -35.585,-10.749 -12.75,-2.917 -25.664,-5.06 -38.625,-6.788 -13.42,-1.788 -26.904,-2.983 -40.326,-4.753 -14.115,-1.861 -28.214,-3.865 -42.369,-5.413 -19.249,-2.105 -39.236,-4.126 -58.638,-2.999 -1.334,0.078 -2.717,0.171 -4.132,0.287 6.85,-3.514 15.476,-4.716 23.089,-5.307 14.967,-1.162 30.264,-1.751 45.464,-1.751 17.854,0 35.982,0.812 53.881,2.411 0.668,0.059 1.336,0.123 2.004,0.188 l 0.91,0.087 c 35.545,3.347 70.77,9.819 104.697,19.235 l 1.981,0.549 c 2.582,0.726 5.158,1.465 7.727,2.226 0.076,0.023 0.132,0.087 0.142,0.166 0.4,3.058 0.695,5.796 0.903,8.369 0.057,0.692 0.106,1.385 0.151,2.079 0.447,6.911 0.252,13.008 -0.596,18.637 C 0.097,-0.535 0.044,-0.269 0,0" /></g></g></g></g><g
           id="g276"><g
             id="g278" /><g
             id="g290"><g
               style="opacity:0.14999402"
               id="g288"
               clip-path="url(#clipPath282)"><g
                 id="g286"
                 transform="translate(312.6719,515.1846)"><path
                   id="path284"
                   style="fill:#404041;fill-opacity:1;fill-rule:nonzero;stroke:none"
                   d="m 0,0 c 2.279,2.761 5.885,4.409 9.643,4.409 1.401,0 2.752,-0.233 4.013,-0.691 0.251,-0.092 0.452,-0.276 0.564,-0.517 0.113,-0.243 0.126,-0.514 0.033,-0.765 -0.142,-0.394 -0.519,-0.658 -0.938,-0.658 -0.115,0 -0.231,0.02 -0.342,0.06 -1.057,0.385 -2.188,0.58 -3.362,0.58 -3.143,0 -6.16,-1.38 -8.07,-3.692 -0.189,-0.23 -0.471,-0.363 -0.771,-0.363 -0.231,0 -0.457,0.081 -0.636,0.229 -0.206,0.17 -0.333,0.41 -0.359,0.677 C -0.25,-0.465 -0.17,-0.206 0,0 m -41.922,2.714 c 2.37,-3.264 5.942,-5.675 9.923,-6.308 0.545,-0.087 0.917,-0.601 0.832,-1.145 -0.006,-0.035 -0.025,-0.063 -0.034,-0.097 0.021,-0.006 0.04,-0.014 0.062,-0.02 4.011,-1.118 8.17,-1.846 12.302,-2.336 7.909,-0.937 16.455,-1.08 24.056,1.609 5.424,1.92 18.36,11.992 6.853,14.603 -7.38,1.674 -15.645,0.78 -23.089,0.22 -10.716,-0.807 -21.497,-2.045 -31.822,-5.097 0.051,-0.086 0.094,-0.177 0.145,-0.262 0.252,-0.402 0.508,-0.792 0.772,-1.167" /></g></g></g></g><g
           id="g292"><g
             id="g294" /><g
             id="g306"><g
               style="opacity:0.14999402"
               id="g304"
               clip-path="url(#clipPath298)"><g
                 id="g302"
                 transform="translate(285.7258,467.8589)"><path
                   id="path300"
                   style="fill:#404041;fill-opacity:1;fill-rule:nonzero;stroke:none"
                   d="m 0,0 c 1.573,-2.254 2.891,-4.681 5.734,-5.555 5.118,-1.573 10.802,0.548 13.735,4.91 C 13.342,1.548 6.497,0.451 0,0" /></g></g></g></g></g></g><g
       id="g308"><g
         clip-path="url(#clipPath314)"
         id="g310"><g
           transform="translate(280.3281,509.417)"
           id="g316"><path
             id="path318"
             style="fill:#000000;fill-opacity:1;fill-rule:nonzero;stroke:none"
             d="m 0,0 c 0.063,-0.01 0.127,-0.015 0.189,-0.015 0.593,0 1.091,0.426 1.185,1.012 0.103,0.653 -0.344,1.27 -0.998,1.374 -6.987,1.111 -12.697,7.771 -12.729,14.845 -0.033,7.075 5.617,13.786 12.593,14.961 0.653,0.11 1.094,0.73 0.985,1.383 -0.098,0.58 -0.595,1.001 -1.181,1.001 -0.066,0 -0.134,-0.005 -0.202,-0.017 C -8.244,33.182 -14.791,25.404 -14.753,17.205 -14.716,9.006 -8.098,1.289 0,0" /></g><g
           transform="translate(313.4414,513.3477)"
           id="g320"><path
             id="path322"
             style="fill:#000000;fill-opacity:1;fill-rule:nonzero;stroke:none"
             d="m 0,0 c 0.36,0 0.698,0.159 0.926,0.436 1.872,2.266 4.831,3.619 7.916,3.619 1.15,0 2.258,-0.191 3.293,-0.568 0.134,-0.048 0.271,-0.072 0.411,-0.072 0.502,0 0.955,0.317 1.126,0.79 0.11,0.3 0.096,0.627 -0.04,0.917 C 13.497,5.413 13.256,5.633 12.955,5.743 11.671,6.209 10.298,6.446 8.873,6.446 5.056,6.446 1.394,4.771 -0.924,1.964 -1.128,1.718 -1.224,1.406 -1.193,1.087 -1.163,0.768 -1.011,0.479 -0.763,0.275 -0.548,0.098 -0.277,0 0,0" /></g><g
           transform="translate(344.8145,493.5352)"
           id="g324"><path
             id="path326"
             style="fill:#000000;fill-opacity:1;fill-rule:nonzero;stroke:none"
             d="m 0,0 c 0.313,0.067 0.582,0.252 0.756,0.522 0.174,0.269 0.232,0.59 0.165,0.903 -0.117,0.549 -0.61,0.948 -1.174,0.948 -0.084,0 -0.168,-0.009 -0.251,-0.027 -19.198,-4.123 -38.825,-6.213 -58.337,-6.213 -13.401,0 -26.964,0.99 -40.31,2.941 -0.06,0.009 -0.12,0.014 -0.18,0.014 -0.588,0 -1.096,-0.442 -1.182,-1.027 -0.047,-0.317 0.034,-0.634 0.225,-0.891 0.191,-0.257 0.472,-0.424 0.789,-0.47 13.461,-1.969 27.141,-2.968 40.658,-2.968 19.679,0 39.477,2.109 58.841,6.268" /></g><g
           transform="translate(375.4814,568.7119)"
           id="g328"><path
             id="path330"
             style="fill:#000000;fill-opacity:1;fill-rule:nonzero;stroke:none"
             d="M 0,0 C -0.077,0 -0.155,-0.007 -0.233,-0.023 L -2.024,-0.38 c -0.565,-0.12 -1.256,-0.241 -2.052,-0.371 -0.793,-0.141 -1.69,-0.286 -2.677,-0.413 -0.928,-0.14 -1.941,-0.254 -3.181,-0.384 -0.811,-0.095 -1.658,-0.158 -2.529,-0.222 l -1.028,-0.078 -0.862,-0.043 c -0.967,-0.049 -1.957,-0.1 -2.965,-0.108 -0.502,-0.017 -1.008,-0.022 -1.515,-0.022 -0.475,0 -0.951,0.004 -1.428,0.009 l -1,0.009 -1.011,0.038 c -0.984,0.035 -1.965,0.07 -2.938,0.148 -0.995,0.054 -1.976,0.149 -2.935,0.243 l -0.87,0.083 -1.039,0.127 c -0.863,0.104 -1.704,0.205 -2.509,0.337 -1.225,0.185 -2.23,0.346 -3.163,0.53 -0.977,0.172 -1.862,0.358 -2.645,0.534 -0.78,0.165 -1.463,0.316 -2.035,0.465 l -1.789,0.444 c -0.092,0.023 -0.188,0.034 -0.284,0.034 -0.439,0 -0.839,-0.24 -1.046,-0.626 -0.149,-0.28 -0.18,-0.6 -0.088,-0.903 0.092,-0.303 0.297,-0.551 0.576,-0.7 l 0.889,-0.475 c 0.267,-0.144 0.608,-0.328 1.016,-0.516 0.57,-0.292 1.251,-0.589 2.021,-0.882 l 1.277,-0.503 1.411,-0.464 c 0.995,-0.355 2.104,-0.637 3.24,-0.917 0.987,-0.275 2.018,-0.458 3.11,-0.652 l 0.581,-0.104 1.961,-0.299 c 0.477,-0.062 0.961,-0.102 1.448,-0.143 l 0.574,-0.049 c 1.389,-0.135 2.783,-0.209 4.145,-0.221 h 0.002 c 10e-4,0 1.116,0.009 1.116,0.009 0.996,0.006 2.026,0.011 3.028,0.071 1.078,0.063 2.143,0.171 3.171,0.276 l 0.829,0.083 c 1.276,0.172 2.521,0.375 3.698,0.604 1.071,0.186 2.051,0.44 2.999,0.686 l 0.276,0.071 c 0.845,0.197 1.624,0.453 2.311,0.679 l 0.413,0.134 c 0.762,0.234 1.429,0.497 1.964,0.709 l 0.101,0.04 c 0.382,0.146 0.703,0.29 0.966,0.406 l 0.968,0.423 c 0.508,0.222 0.798,0.78 0.69,1.324 C 1.057,-0.403 0.565,0 0,0" /></g><g
           transform="translate(246.1162,562.9673)"
           id="g332"><path
             id="path334"
             style="fill:#000000;fill-opacity:1;fill-rule:nonzero;stroke:none"
             d="m 0,0 c 1.235,0.174 2.5,0.402 3.863,0.695 1.095,0.214 2.216,0.483 3.42,0.821 1.077,0.267 2.039,0.582 2.851,0.855 0.842,0.261 1.571,0.539 2.168,0.774 0.405,0.15 0.746,0.298 1.023,0.419 l 1.005,0.429 c 0.514,0.219 0.808,0.778 0.699,1.328 -0.111,0.555 -0.601,0.959 -1.167,0.959 -0.077,0 -0.155,-0.008 -0.234,-0.023 L 11.736,5.88 C 10.04,5.546 8.404,5.263 6.731,5.015 5.694,4.848 4.566,4.701 3.37,4.551 2.511,4.436 1.614,4.345 0.692,4.252 L -0.392,4.141 C -3.037,3.901 -5.801,3.738 -8.607,3.654 -9.626,3.632 -10.646,3.622 -11.658,3.622 c -1.765,0 -3.508,0.033 -5.176,0.098 l -1.082,0.056 c -0.929,0.046 -1.832,0.091 -2.701,0.163 -1.2,0.088 -2.335,0.178 -3.382,0.292 -1.688,0.164 -3.335,0.362 -5.035,0.607 l -1.924,0.282 c -0.058,0.009 -0.115,0.013 -0.172,0.013 -0.494,0 -0.942,-0.311 -1.114,-0.774 -0.111,-0.297 -0.099,-0.62 0.033,-0.909 0.131,-0.289 0.368,-0.509 0.666,-0.62 l 1.025,-0.382 c 0.283,-0.107 0.634,-0.24 1.045,-0.371 0.499,-0.172 1.27,-0.428 2.199,-0.665 0.769,-0.218 1.794,-0.495 2.901,-0.712 1.132,-0.262 2.297,-0.479 3.459,-0.647 1.252,-0.208 2.563,-0.375 3.902,-0.496 0.414,-0.028 0.832,-0.064 1.254,-0.1 0.949,-0.082 1.931,-0.166 2.928,-0.166 h 0.002 c 0.977,-0.033 1.965,-0.04 2.957,-0.04 l 1.384,0.003 1.049,0.055 c 1.098,0.057 2.192,0.113 3.266,0.206 0.992,0.057 1.97,0.191 2.916,0.32 C -0.836,-0.107 -0.418,-0.05 0,0" /></g><g
           transform="translate(333.3437,643.9868)"
           id="g336"><path
             id="path338"
             style="fill:#000000;fill-opacity:1;fill-rule:nonzero;stroke:none"
             d="m 0,0 c 2.597,3.611 7.176,6.182 12.564,7.052 1.628,0.263 3.302,0.391 5.118,0.391 2.779,0 5.818,-0.289 10.161,-0.966 7.451,-1.161 15.198,-2.847 21.371,-7.288 2.187,-1.572 4.117,-3.601 5.639,-5.871 -9.051,2.34 -18.433,3.533 -27.897,3.533 -9.983,0 -19.839,-1.321 -29.301,-3.919 C -2.299,-4.555 -1.476,-2.054 0,0 m -4.495,-9.932 c 0.011,-0.055 0.045,-0.103 0.093,-0.132 0.032,-0.019 0.067,-0.029 0.103,-0.029 0.02,0 0.039,0.003 0.058,0.009 0.412,0.124 0.827,0.237 1.242,0.35 l 0.679,0.187 c 9.452,2.656 19.309,4.004 29.299,4.004 10.091,0 20.058,-1.374 29.624,-4.082 0.822,-0.232 1.638,-0.48 2.454,-0.733 0.019,-0.006 0.04,-0.009 0.059,-0.009 0.054,0 0.107,0.022 0.146,0.062 0.051,0.056 0.068,0.136 0.042,0.207 -0.316,0.853 -0.679,1.679 -1.081,2.454 0,0.001 -10e-4,0.001 -10e-4,0.001 -1.761,3.401 -4.463,6.52 -7.606,8.782 -6.58,4.732 -14.656,6.502 -22.402,7.71 -4.481,0.697 -7.631,0.995 -10.535,0.995 -1.942,0 -3.74,-0.138 -5.497,-0.423 C 6.168,8.45 1.018,5.526 -1.947,1.401 c -1.94,-2.697 -2.93,-5.998 -2.79,-9.293 0,0 0,0 0,0 0,0 0,0 0,0 0.03,-0.686 0.111,-1.372 0.242,-2.04" /></g><g
           transform="translate(211.8076,643.1763)"
           id="g340"><path
             id="path342"
             style="fill:#000000;fill-opacity:1;fill-rule:nonzero;stroke:none"
             d="m 0,0 c 6.171,4.439 13.918,6.126 21.371,7.287 4.346,0.677 7.386,0.966 10.165,0.966 1.814,0 3.487,-0.128 5.114,-0.39 5.389,-0.871 9.968,-3.441 12.563,-7.052 1.478,-2.055 2.301,-4.555 2.346,-7.069 -9.461,2.598 -19.317,3.919 -29.299,3.919 -9.465,0 -18.847,-1.193 -27.898,-3.533 C -4.117,-3.602 -2.187,-1.573 0,0 m 51.534,-8.736 0.695,-0.192 c 0.41,-0.112 0.82,-0.223 1.227,-0.346 0.019,-0.006 0.038,-0.009 0.058,-0.009 0.036,0 0.071,0.01 0.103,0.029 0.049,0.029 0.082,0.078 0.093,0.133 0.131,0.671 0.212,1.357 0.242,2.039 0,0 0,0 0,0 0,0 0,0 0,0 0.14,3.296 -0.851,6.596 -2.789,9.293 -2.966,4.126 -8.116,7.049 -14.13,8.021 -1.758,0.284 -3.555,0.422 -5.496,0.422 -2.906,0 -6.057,-0.298 -10.536,-0.995 C 13.254,8.452 5.179,6.682 -1.401,1.949 c -3.145,-2.262 -5.847,-5.381 -7.607,-8.782 -0.405,-0.782 -0.768,-1.607 -1.08,-2.454 -0.027,-0.071 -0.011,-0.152 0.042,-0.207 0.038,-0.041 0.091,-0.063 0.145,-0.063 0.02,0 0.04,0.003 0.059,0.01 0.816,0.253 1.632,0.5 2.454,0.732 0,0 0,0 0.001,10e-4 9.566,2.708 19.533,4.082 29.623,4.082 9.991,0 19.848,-1.348 29.298,-4.004" /></g><g
           transform="translate(482.3506,154.9863)"
           id="g344"><path
             id="path346"
             style="fill:#000000;fill-opacity:1;fill-rule:nonzero;stroke:none"
             d="m 0,0 c -11.966,-12.15 -29.032,-18.184 -44.091,-23.507 l -78.416,-27.722 c -6.936,-2.453 -14.799,-5.232 -22.607,-5.232 -1.77,0 -3.498,0.145 -5.14,0.43 -7.264,1.263 -13.884,6.66 -15.853,12.879 6.802,1.317 13.688,2.249 20.477,2.771 -0.003,-1.404 -0.064,-2.804 -0.191,-4.166 -0.061,-0.658 0.425,-1.244 1.084,-1.307 0.006,0 0.106,-0.004 0.112,-0.004 0.622,0 1.136,0.467 1.194,1.088 0.158,1.681 0.22,3.461 0.19,5.289 0.064,0.17 0.095,0.333 0.085,0.495 -0.009,0.134 -0.055,0.262 -0.11,0.387 -0.246,6.986 -2.021,13.994 -5.131,20.29 2.136,0.603 4.268,1.216 6.395,1.843 l 2.105,0.63 c 0.075,0.023 0.129,0.087 0.14,0.164 0.099,0.719 0.195,1.437 0.286,2.156 0.37,2.901 0.645,5.557 0.845,8.117 2.508,0.451 5.065,0.779 7.603,0.966 19.758,-8.081 41.494,-12.517 62.862,-12.83 2.889,-1.723 5.341,-2.812 7.713,-3.421 1.422,-0.365 2.862,-0.55 4.281,-0.55 3.506,0 6.647,1.111 8.847,3.129 0.847,0.776 1.568,1.711 2.151,2.774 1.07,0.151 2.084,0.418 3.009,0.807 3.315,1.395 5.949,4.318 7.074,7.83 0.096,0.024 0.233,0.058 0.281,0.072 2.298,0.67 4.001,1.851 4.925,3.418 0.383,0.647 0.614,1.436 0.675,2.239 1.589,0.012 2.868,0.341 3.898,1.014 2.446,1.596 2.994,4.751 2.453,7.171 -0.236,1.05 -0.674,2.123 -1.323,3.269 2.727,1.479 4.73,3.893 5.499,6.664 1.437,5.172 -1.427,11.275 -6.384,13.603 -1.834,0.861 -3.849,1.28 -6.162,1.28 -0.739,0 -1.497,-0.042 -2.315,-0.128 -10.537,3.976 -21.728,5.993 -33.262,5.993 -5.376,0 -10.767,-0.454 -16.022,-1.35 l -16.132,3.433 c -5.149,1.097 -10.471,2.231 -15.877,2.231 -1.255,0 -2.489,-0.063 -3.668,-0.186 -4.911,-0.512 -9.316,-2.226 -12.752,-4.955 -1.262,0.208 -2.447,0.331 -3.614,0.37 -0.319,0.012 -0.636,0.017 -0.951,0.017 -3.362,0 -6.815,-0.661 -10.266,-1.96 -1.459,2.481 -3.097,4.769 -4.872,6.815 21.715,6.279 42.903,16.59 61.298,29.838 0.184,-0.016 0.674,-0.061 0.757,-0.068 0.001,0 0.001,-0.001 0.002,-0.001 0,0 1.894,-0.177 2.008,-0.188 0.001,0 0.002,0 0.002,-0.001 19.216,-1.796 41.524,-4.145 63.099,-9.299 C -12.607,59.926 1.122,55.497 8.104,44.875 17.491,30.6 10.935,11.1 0,0 m -220.713,-60.347 c -0.858,-0.473 -1.715,-0.954 -2.573,-1.435 -2.856,-1.605 -6.092,-3.421 -9.383,-4.845 -1.703,0.251 -3.339,0.71 -4.886,1.348 2.143,0.39 4.044,1.192 5.332,1.79 4.339,2.016 8.254,4.755 11.637,8.138 0.467,0.468 0.467,1.23 0,1.698 -0.227,0.226 -0.529,0.351 -0.85,0.351 -0.32,0 -0.622,-0.125 -0.848,-0.351 -3.183,-3.186 -6.868,-5.762 -10.951,-7.659 -2.475,-1.15 -4.491,-1.721 -6.342,-1.797 l -0.117,-0.003 c 4.718,2.241 8.65,5.73 11.386,10.161 0.168,0.273 0.22,0.595 0.146,0.907 -0.074,0.312 -0.264,0.576 -0.537,0.744 -0.19,0.118 -0.407,0.181 -0.63,0.181 -0.419,0 -0.801,-0.214 -1.022,-0.57 -2.936,-4.756 -7.456,-8.399 -12.729,-10.258 -0.24,-0.085 -0.463,-0.152 -0.687,-0.218 l -0.131,-0.039 c -0.001,0 -0.001,0 -0.001,0 -1.025,-0.307 -1.915,-0.463 -2.72,-0.476 -0.003,0 -0.006,-0.003 -0.009,-0.003 -0.005,0 -0.01,0.002 -0.015,0.002 -0.001,0 -0.276,-0.003 -0.276,-0.003 -0.122,0 -0.241,0.003 -0.357,0.013 -1.273,0.111 -2.362,0.668 -3.005,1.484 1.179,0.033 2.409,0.341 3.572,0.916 1.8,0.887 3.23,2.205 4.616,3.479 l 10.575,9.735 c 0.487,0.449 0.518,1.209 0.071,1.697 -0.228,0.246 -0.55,0.386 -0.885,0.386 -0.301,0 -0.59,-0.113 -0.811,-0.317 l -10.582,-9.741 c -1.257,-1.157 -2.557,-2.354 -4.046,-3.087 -0.899,-0.444 -1.833,-0.679 -2.702,-0.679 -0.172,0 -0.34,0.009 -0.505,0.027 -0.393,0.043 -0.75,0.133 -1.041,0.255 -0.076,0.042 -0.249,0.189 -0.558,0.696 0,0 -0.001,0 -0.001,0 -0.414,0.681 -0.914,1.79 -1.385,3.054 1.69,0.584 3.178,1.591 4.491,2.491 l 10.764,7.368 c 0.265,0.18 0.443,0.454 0.502,0.769 0.059,0.316 -0.008,0.634 -0.19,0.899 -0.224,0.327 -0.594,0.522 -0.991,0.522 -0.242,0 -0.476,-0.073 -0.676,-0.21 l -10.77,-7.372 c -1.283,-0.878 -2.609,-1.786 -4.087,-2.262 -0.588,-0.185 -1.181,-0.279 -1.762,-0.279 0,0 -0.13,0.002 -0.148,0.002 0,0 0,0 0,0 -0.736,0.022 -1.369,0.189 -1.879,0.498 -1.895,1.151 -2.122,3.945 -2.131,5.094 -0.025,3.002 0.972,6.09 2.803,8.707 36.385,3.31 72.482,9.895 107.294,19.575 2.977,-5.884 4.721,-12.45 5.049,-19.014 -7.011,-0.533 -14.124,-1.497 -21.146,-2.869 l -0.709,-0.136 c -0.425,-0.08 -0.848,-0.162 -1.27,-0.248 -18.288,-3.779 -35.748,-10.21 -51.894,-19.116 m 87.581,95.255 c 0.805,-0.087 1.631,-0.215 2.454,-0.38 4.947,-0.987 9.742,-3.205 13.974,-5.161 0.16,-0.075 0.33,-0.113 0.505,-0.113 0.466,0 0.893,0.273 1.089,0.697 0.134,0.29 0.148,0.616 0.037,0.917 -0.111,0.302 -0.331,0.541 -0.622,0.676 -3.745,1.733 -7.976,3.681 -12.379,4.843 2.793,1.746 6.173,2.875 9.822,3.256 1.088,0.113 2.231,0.17 3.397,0.17 5.18,0 10.376,-1.106 15.4,-2.176 l 11.609,-2.471 4.927,-1.049 c 0.014,-0.003 0.028,-0.005 0.042,-0.005 0.012,0 0.023,10e-4 0.034,0.003 1.971,0.346 3.892,0.624 5.71,0.825 3.402,0.379 6.87,0.572 10.309,0.572 9.768,0 19.342,-1.512 28.473,-4.47 -0.739,-0.172 -1.479,-0.346 -2.226,-0.539 -0.311,-0.079 -0.571,-0.275 -0.735,-0.552 -0.163,-0.275 -0.209,-0.598 -0.128,-0.909 0.136,-0.531 0.615,-0.902 1.163,-0.902 0.1,0 0.201,0.013 0.298,0.039 2,0.514 4.135,1.026 6.196,1.281 0.915,0.113 1.747,0.169 2.545,0.169 0.159,0 0.471,-0.007 0.491,-0.008 0,0 0,0 0,0 1.768,-0.054 3.294,-0.392 4.665,-1.037 3.944,-1.854 6.228,-6.692 5.092,-10.788 -0.625,-2.251 -2.352,-4.264 -4.62,-5.385 -0.602,-0.298 -1.244,-0.528 -1.908,-0.685 -0.627,-0.148 -1.255,-0.222 -1.867,-0.222 -0.513,0 -1.02,0.053 -1.506,0.157 -3.927,0.847 -6.798,4.488 -8.862,7.567 -0.224,0.333 -0.598,0.532 -0.999,0.532 -0.238,0 -0.469,-0.071 -0.666,-0.203 -0.549,-0.369 -0.697,-1.116 -0.329,-1.665 2.314,-3.454 5.583,-7.55 10.351,-8.577 0.646,-0.139 1.317,-0.21 1.994,-0.21 0.974,0 1.977,0.157 2.986,0.456 0.627,-1.06 1.02,-1.976 1.22,-2.867 0.348,-1.557 0.052,-3.673 -1.423,-4.636 -0.645,-0.421 -1.52,-0.626 -2.675,-0.626 -0.149,0 -0.298,0.004 -0.443,0.009 -0.182,0.007 -0.36,0.016 -0.531,0.029 -0.717,0.052 -1.44,0.14 -2.146,0.261 -5.017,0.859 -9.649,3.39 -13.044,7.126 -0.227,0.249 -0.551,0.392 -0.889,0.392 -0.299,0 -0.586,-0.11 -0.807,-0.311 -0.489,-0.446 -0.525,-1.206 -0.081,-1.696 4.007,-4.407 9.697,-7.326 15.636,-8.041 -0.036,-0.43 -0.147,-0.847 -0.345,-1.184 -0.531,-0.899 -1.504,-1.612 -2.888,-2.119 -10e-4,0 -10e-4,0 -0.002,-10e-4 -0.221,-0.081 -0.437,-0.156 -0.643,-0.214 -0.436,-0.128 -0.904,-0.231 -1.428,-0.316 0,0 0,0 -10e-4,0 -0.643,-0.102 -1.306,-0.155 -1.972,-0.155 -3.389,0 -6.785,1.362 -9.084,3.643 -0.225,0.225 -0.525,0.348 -0.845,0.348 -0.322,0 -0.625,-0.126 -0.851,-0.354 -0.466,-0.469 -0.463,-1.231 0.007,-1.697 2.791,-2.77 6.696,-4.359 10.713,-4.359 0.329,0 0.692,0.02 1.08,0.05 -1.094,-2.335 -2.979,-4.207 -5.232,-5.155 -0.433,-0.182 -0.893,-0.334 -1.367,-0.452 -0.626,-0.156 -1.33,-0.243 -2.151,-0.266 -0.001,0 -0.001,0 -0.001,0 -0.019,-0.001 -0.305,-0.005 -0.305,-0.005 -2.622,0 -5.158,0.948 -6.956,2.6 -0.223,0.205 -0.511,0.317 -0.813,0.317 -0.334,0 -0.656,-0.142 -0.883,-0.388 -0.448,-0.487 -0.415,-1.248 0.071,-1.696 1.993,-1.832 4.614,-2.954 7.412,-3.2 -0.266,-0.332 -0.548,-0.649 -0.858,-0.934 -2.246,-2.06 -5.15,-2.492 -7.191,-2.492 -1.239,0 -2.525,0.162 -3.719,0.469 -1.207,0.31 -2.458,0.772 -3.894,1.425 -0.013,0.01 -0.019,0.026 -0.034,0.034 -1.124,0.532 -2.31,1.18 -3.624,1.984 -0.032,0.019 -0.067,0.028 -0.103,0.029 -1.286,0.014 -2.573,0.05 -3.859,0.093 -18.851,0.63 -37.372,4.371 -55.05,11.121 -1.401,0.536 -2.795,1.091 -4.27,1.677 -1.298,-0.087 -2.681,-0.221 -4.227,-0.412 0,0 0,0 0,0 -0.003,0 -0.006,0 -0.008,-10e-4 -1.165,-0.144 -2.354,-0.325 -3.535,-0.528 0.396,6.747 0.181,12.755 -0.662,18.353 -0.972,6.455 -2.919,12.491 -5.782,17.952 3.084,1.116 6.166,1.692 9.162,1.692 0.262,0 0.525,-0.005 0.79,-0.014 0.546,-0.018 1.122,-0.062 1.815,-0.138 m -179.962,-73.566 c -15.196,0 -30.487,0.589 -45.448,1.75 -12.032,0.933 -26.609,3.383 -32.589,14.127 -3.864,6.943 -3.112,16.777 1.917,25.054 4.836,7.961 12.554,13.8 19.408,18.648 23.872,16.884 49.986,30.365 77.614,40.072 0,0 1.299,0.457 1.799,0.63 l 0.051,-0.021 0.013,0.015 c 0.015,-0.014 0.026,-0.032 0.045,-0.04 10e-4,0 10e-4,0 0.002,-10e-4 v 0 c 0,0 10e-4,0 10e-4,0 20.026,-8.581 41.18,-14.418 62.887,-17.366 -26.997,-8.779 -55.022,-13.235 -83.317,-13.235 -1.273,0 -2.546,0.008 -3.82,0.027 l -1.671,0.026 c -1.265,0.021 -2.542,0.04 -3.822,0.04 -3.466,0 -7.549,-0.131 -11.559,-1.112 -6.53,-1.597 -11.62,-5.324 -13.964,-10.227 -0.286,-0.597 -0.032,-1.316 0.566,-1.601 0.162,-0.077 0.335,-0.116 0.515,-0.116 0.46,0 0.886,0.267 1.085,0.681 2.032,4.252 6.54,7.507 12.368,8.931 3.763,0.92 7.68,1.044 11.013,1.044 1.262,0 2.52,-0.02 3.828,-0.041 l 1.608,-0.025 c 1.275,-0.018 2.553,-0.027 3.827,-0.027 29.577,0 58.806,4.795 86.873,14.253 0.418,0.141 0.835,0.286 1.251,0.433 l 0.79,0.274 c 0,0 0,0 0,0 l 0.356,0.123 c 1.377,0.475 2.755,0.949 4.131,1.434 0,0 0,0 0,0 l 0.343,0.119 c 7.721,2.716 15.703,5.525 23.835,6.993 3.786,0.685 7.507,1.031 11.059,1.031 7.487,0 14.095,-1.53 19.641,-4.547 2.566,-1.397 5.015,-3.208 7.277,-5.382 0.524,-0.501 1.043,-1.033 1.588,-1.622 1.984,-2.146 3.798,-4.603 5.393,-7.302 0.338,-0.573 0.67,-1.153 0.987,-1.747 2.84,-5.309 4.765,-11.223 5.721,-17.575 0.846,-5.618 1.041,-11.701 0.595,-18.596 -0.045,-0.693 -0.094,-1.384 -0.151,-2.075 0,-0.001 0,-0.001 0,-0.001 0,0 0,0 0,0 -0.208,-2.576 -0.504,-5.314 -0.903,-8.359 -2.567,-0.76 -5.143,-1.499 -7.724,-2.225 l -1.98,-0.549 c -33.914,-9.412 -69.128,-15.882 -104.662,-19.229 -10e-4,0 -0.002,0 -0.002,0 -0.105,-0.01 -0.909,-0.087 -0.909,-0.087 -0.667,-0.064 -1.334,-0.128 -2.002,-0.187 -17.898,-1.6 -36.02,-2.41 -53.864,-2.41 m 8.039,126.257 c -17.789,0 -35.722,0.821 -53.298,2.439 -11.044,1.017 -24.365,3.476 -29.388,13.547 -4.677,9.381 0.103,20.561 5.965,31.244 l 47.644,86.834 1.875,3.418 c 0.017,0.031 0.025,0.066 0.024,0.102 -0.034,1.405 -0.044,2.782 -0.03,4.095 0.049,4.36 0.366,8.261 0.968,11.927 1.975,12.015 7.358,21.869 15.159,27.748 4.181,3.152 9.214,5.342 15.375,6.697 15.445,-17.289 22.22,-41.957 17.68,-64.41 -1.993,-9.852 -5.891,-19.067 -10.405,-29.231 -2.108,-4.748 -4.456,-9.943 -7.176,-15.881 l -1.298,-2.812 c -3.443,-7.476 -6.572,-14.15 -9.564,-20.401 -3.536,0.311 -6.983,0.47 -10.246,0.47 -16.006,0 -29.269,-3.813 -39.419,-11.332 -0.531,-0.395 -0.644,-1.148 -0.25,-1.68 0.225,-0.304 0.585,-0.485 0.964,-0.485 0.259,0 0.506,0.082 0.715,0.235 9.724,7.206 22.507,10.859 37.99,10.859 3.004,0 6.173,-0.136 9.418,-0.406 0.712,-0.059 1.42,-0.124 2.125,-0.194 4.419,-0.44 8.998,-1.107 14,-2.039 0.713,-0.133 1.416,-0.268 2.111,-0.405 1.042,-0.205 2.07,-0.413 3.069,-0.621 3.302,-0.692 6.621,-1.428 9.966,-2.171 13.952,-3.097 28.379,-6.299 42.587,-6.299 4.867,0 9.575,0.391 13.993,1.164 0,0 0,0 0,0 0.799,0.139 1.597,0.293 2.395,0.462 0.062,0.012 0.115,0.055 0.141,0.114 l 0.178,0.401 c 0.277,0.622 0.553,1.243 0.822,1.869 9.702,22.539 16.028,47.206 18.294,71.335 l 0.031,0.336 c 0.288,3.08 0.586,6.265 2.026,8.858 1.029,1.851 3.263,3.843 5.738,3.843 0.383,0 0.762,-0.049 1.126,-0.147 2.059,-0.553 3.431,-2.366 4.079,-5.388 -0.08,-0.427 -0.141,-0.876 -0.195,-1.336 -2.801,-0.12 -5.785,-1.661 -7.647,-3.974 -2.731,-3.394 -3.569,-7.932 -4.243,-11.579 l -7.359,-39.833 c -0.12,-0.651 0.311,-1.278 0.961,-1.398 0.074,-0.014 0.148,-0.02 0.22,-0.02 0.578,0 1.074,0.413 1.179,0.982 l 7.359,39.833 c 0.657,3.558 1.402,7.589 3.753,10.511 0.987,1.225 2.435,2.219 3.975,2.724 0,10e-4 0,0.002 0.001,0.002 0.546,0.18 1.093,0.282 1.633,0.327 -0.003,-0.117 -0.006,-0.233 -0.007,-0.35 -0.008,-0.862 0.014,-1.687 0.067,-2.522 0.025,-0.385 0.045,-0.772 0.065,-1.16 l 0.04,-0.735 c -0.237,-0.072 -0.444,-0.205 -0.598,-0.41 -2.217,-0.79 -4.182,-2.425 -5.538,-4.609 -1.776,-2.859 -2.446,-6.234 -3.037,-9.211 l -7.294,-36.731 c -0.062,-0.314 0.001,-0.634 0.179,-0.9 0.178,-0.267 0.45,-0.448 0.762,-0.51 0.076,-0.016 0.156,-0.024 0.237,-0.024 0.57,0 1.065,0.408 1.176,0.967 l 7.295,36.735 c 0.578,2.911 1.176,5.922 2.721,8.409 1.054,1.697 2.591,2.988 4.246,3.591 l 0.07,-1.268 c -0.717,-14.963 -0.582,-29.965 -0.452,-44.474 0.149,-16.47 0.304,-33.502 -0.78,-50.307 -0.334,-5.189 -5.471,-11.738 -10.102,-15.629 -1.092,-0.918 -2.962,-1.403 -5.408,-1.403 -2.492,0 -5.363,0.504 -8.302,1.46 -2.248,0.73 -4.364,1.687 -6.12,2.768 -0.871,0.535 -1.647,1.098 -2.308,1.671 -0.036,0.031 -0.083,0.049 -0.13,0.049 -0.01,0 -2.546,-0.346 -2.546,-0.346 -20.982,-2.873 -42.359,-4.617 -63.537,-5.183 -0.001,0 -0.001,-0.001 -0.001,-0.001 -0.034,0 -1.998,-0.051 -1.998,-0.051 -4.556,-0.107 -9.172,-0.16 -13.721,-0.16 m 4.037,72.032 c 1.54,-5.982 2.944,-12.277 4.174,-18.736 -4.306,0.78 -8.286,1.362 -12.142,1.773 2.458,5.142 5.069,10.701 7.968,16.963 m 21.793,117.64 c 16.725,-0.312 33.588,-2.033 50.126,-5.11 -1.621,-11.677 0.12,-21.434 5.183,-29.001 5.8,-8.67 16.771,-14.271 27.949,-14.271 0.302,0 0.604,0.004 0.906,0.011 10.67,0.287 21.392,5.301 29.416,13.757 3.983,4.197 7.482,9.437 10.4,15.575 0.608,1.279 1.191,2.6 1.793,4.096 0.009,0.011 0.022,0.018 0.027,0.032 1.194,2.909 2.306,6.061 3.305,9.366 17.263,3.351 34.908,5.218 52.45,5.545 1.11,0.021 2.234,0.034 3.367,0.034 6.055,0 10.971,-0.36 15.439,-1.123 -15.248,-17.758 -21.878,-42.788 -17.302,-65.418 2.04,-10.086 5.991,-19.432 10.563,-29.73 1.644,-3.701 3.317,-7.403 4.998,-11.106 -2.162,-10.004 -3.941,-20.153 -5.295,-30.172 l -0.44,-0.091 c -3.26,-0.683 -6.536,-1.409 -9.822,-2.138 l -0.154,-0.034 c -13.823,-3.068 -28.116,-6.241 -42.092,-6.241 -5.274,0 -10.109,0.44 -14.782,1.343 -9.913,22.67 -16.36,47.503 -18.643,71.823 l -0.032,0.335 c -0.311,3.326 -0.632,6.765 -2.318,9.798 -1.405,2.53 -4.367,5.082 -7.817,5.082 -0.596,0 -1.191,-0.078 -1.767,-0.233 -2.038,-0.546 -3.607,-1.896 -4.68,-3.997 -1.073,2.101 -2.642,3.451 -4.681,3.997 -0.577,0.156 -1.172,0.234 -1.769,0.234 -3.449,0 -6.41,-2.553 -7.815,-5.083 -1.685,-3.034 -2.007,-6.476 -2.318,-9.805 l -0.031,-0.329 c -2.283,-24.318 -8.73,-49.151 -18.643,-71.822 -4.673,-0.903 -9.511,-1.344 -14.786,-1.344 -13.981,0 -28.269,3.173 -42.087,6.241 -3.339,0.741 -6.666,1.48 -9.978,2.173 -1.219,0.256 -2.474,0.509 -3.755,0.757 -1.428,7.628 -3.155,15.237 -5.134,22.618 3.167,6.884 5.758,12.604 8.152,17.994 4.572,10.297 8.523,19.642 10.563,29.73 4.576,22.631 -2.054,47.661 -17.302,65.418 4.467,0.764 9.378,1.123 15.424,1.123 1.138,0 2.267,-0.013 3.382,-0.034 m -25.337,88.872 c -0.176,0.669 -0.343,1.343 -0.506,2.018 0,0 0,0 0,0 -1.721,7.101 -2.729,14.429 -3.013,21.847 0.001,0.011 0.01,0.019 0.01,0.031 -0.054,1.513 -0.079,2.776 -0.079,3.975 l -0.019,1.023 c 0.006,0.018 0.019,0.033 0.019,0.053 v 10.876 2.24 21.165 3.108 66.535 c 0,2.601 0.097,5.271 0.289,7.936 8.153,13.336 19.281,24.982 32.185,33.681 0.632,0.426 1.266,0.847 1.906,1.259 0.061,0.039 0.096,0.109 0.091,0.181 -0.051,0.762 -0.086,1.526 -0.107,2.29 -0.163,6.259 0.711,12.415 2.592,18.304 28.883,-8.162 51.666,-13.391 75.856,-14.243 1.999,-0.07 4.018,-0.107 6,-0.107 18.977,0 46.541,3.329 70.248,19.139 1.811,-7.043 2.133,-14.519 0.915,-21.641 -0.119,-0.698 -0.259,-1.394 -0.407,-2.086 -0.018,-0.083 0.019,-0.168 0.091,-0.213 l 1.8,-1.106 c 7.734,-4.8 16.719,-10.678 24.716,-17.876 8.878,-7.991 15.413,-16.713 19.424,-25.924 v -66.699 -3.38 -20.061 -2.224 -12.261 c -0.001,-1.805 -0.047,-3.645 -0.137,-5.469 -0.333,-6.733 -1.298,-13.474 -2.868,-20.037 -0.164,-0.688 -0.331,-1.375 -0.507,-2.059 -9.814,-37.77 -39.274,-67.734 -76.884,-78.2 -0.67,-0.187 -1.339,-0.372 -2.014,-0.546 -8.903,-2.295 -18.118,-3.458 -27.39,-3.458 h -16 c -9.28,0 -18.503,1.165 -27.414,3.464 -0.678,0.175 -1.353,0.362 -2.027,0.55 -37.475,10.442 -66.892,40.298 -76.77,77.915 m -11.335,0.037 c -5.207,0.978 -10.204,4.661 -13.709,10.104 -3.263,5.067 -5.025,11.074 -6.443,16.812 -1.459,5.902 -2.768,12.251 -2.475,18.685 0.309,6.777 2.517,12.81 6.218,16.989 3.414,3.855 8.274,6.157 12.999,6.157 1.062,0 2.109,-0.116 3.112,-0.346 2.051,-0.47 3.999,-1.508 5.644,-2.998 v -24.47 -2.387 -5.171 c -0.674,1.148 -1.369,2.271 -2.081,3.331 -0.373,0.557 -0.756,1.107 -1.145,1.651 -1.249,1.744 -2.44,3.269 -3.642,4.661 -1.666,1.929 -3.548,3.882 -6.02,5.091 -1.398,0.684 -2.917,1.045 -4.394,1.045 -1.432,0 -2.778,-0.341 -3.894,-0.988 -2.829,-1.641 -4.015,-5.386 -2.538,-8.013 0.212,-0.379 0.613,-0.614 1.047,-0.614 0.205,0 0.408,0.054 0.587,0.155 0.279,0.157 0.481,0.414 0.568,0.722 0.086,0.308 0.047,0.633 -0.11,0.912 -0.923,1.642 0.111,3.869 1.65,4.762 0.756,0.438 1.685,0.669 2.687,0.669 1.107,0 2.263,-0.278 3.342,-0.806 2.083,-1.019 3.758,-2.766 5.258,-4.504 1.21,-1.401 2.385,-2.908 3.587,-4.596 -2.623,-2.801 -4.545,-6.125 -5.557,-9.629 -0.183,-0.635 0.185,-1.302 0.822,-1.486 0.11,-0.031 0.222,-0.047 0.332,-0.047 0.531,0 1.005,0.357 1.153,0.868 0.856,2.966 2.46,5.812 4.637,8.252 1.359,-2.071 2.608,-4.232 3.711,-6.43 v -0.547 c 0,-9.035 1.093,-18.046 3.243,-26.788 -1.864,-0.838 -3.926,-1.288 -5.98,-1.288 -0.879,0 -1.757,0.081 -2.609,0.242 m 117.546,242.633 h 16 c 58.831,0 106.818,-45.789 109.676,-104.497 -4.196,7.794 -10.134,15.195 -17.694,21.999 -8.211,7.392 -17.525,13.471 -25.572,18.448 1.472,8.009 1.102,16.397 -1.082,24.27 0,0 0,0 0,0 -0.189,0.681 -0.392,1.358 -0.608,2.031 -0.019,0.061 -0.066,0.109 -0.127,0.129 -0.021,0.007 -0.042,0.01 -0.063,0.01 -0.041,0 -0.082,-0.013 -0.117,-0.037 -0.568,-0.406 -1.14,-0.798 -1.712,-1.188 -23.376,-15.921 -50.796,-19.263 -69.682,-19.263 -1.958,0 -3.951,0.035 -5.922,0.105 -23.984,0.846 -46.617,6.051 -75.362,14.174 0,10e-4 0,10e-4 0,10e-4 l -1.928,0.543 c -0.018,0.005 -0.037,0.008 -0.055,0.008 -0.082,0 -0.158,-0.051 -0.188,-0.132 -0.228,-0.63 -0.451,-1.262 -0.656,-1.9 -2.111,-6.562 -3.02,-13.395 -2.707,-20.313 -12.198,-8.055 -22.956,-18.753 -31.205,-31.057 6.598,55.166 53.318,96.669 109.004,96.669 M -63.975,434.581 c 1.002,0.229 2.048,0.345 3.11,0.345 4.727,0 9.588,-2.301 13.002,-6.156 3.7,-4.178 5.909,-10.211 6.217,-16.989 0.292,-6.438 -1.016,-12.785 -2.474,-18.685 -1.417,-5.736 -3.179,-11.742 -6.443,-16.812 -3.505,-5.443 -8.501,-9.126 -13.709,-10.104 -0.852,-0.16 -1.73,-0.242 -2.61,-0.242 -2.242,0 -4.468,0.528 -6.455,1.515 2.069,8.494 3.139,17.255 3.18,26.043 1.201,2.511 2.633,5.03 4.25,7.495 2.176,-2.44 3.781,-5.286 4.636,-8.252 0.149,-0.511 0.623,-0.868 1.154,-0.868 0.11,0 0.221,0.016 0.333,0.048 0.636,0.184 1.004,0.85 0.82,1.486 -1.013,3.503 -2.935,6.827 -5.557,9.628 1.201,1.686 2.376,3.194 3.587,4.597 1.5,1.737 3.175,3.484 5.258,4.503 1.079,0.528 2.234,0.807 3.341,0.807 1.002,0 1.932,-0.232 2.688,-0.67 1.541,-0.894 2.574,-3.12 1.65,-4.762 -0.156,-0.28 -0.195,-0.604 -0.108,-0.912 0.085,-0.309 0.288,-0.566 0.568,-0.722 0.178,-0.101 0.38,-0.154 0.584,-0.154 0.434,0 0.836,0.235 1.05,0.612 1.475,2.628 0.289,6.374 -2.539,8.014 -1.116,0.647 -2.462,0.988 -3.895,0.988 -1.476,0 -2.996,-0.361 -4.393,-1.045 -2.471,-1.209 -4.354,-3.161 -6.02,-5.09 -1.199,-1.388 -2.391,-2.913 -3.643,-4.662 -0.389,-0.544 -0.772,-1.094 -1.145,-1.65 -0.95,-1.416 -1.811,-2.832 -2.612,-4.273 v 6.468 2.338 23.652 c 1.751,1.77 3.884,2.984 6.175,3.509 m -89.637,-165.897 c -0.004,-0.008 -0.012,-0.012 -0.015,-0.021 -0.649,-1.904 -1.362,-3.795 -2.133,-5.691 -0.007,-0.011 -0.018,-0.017 -0.023,-0.029 -3.14,-7.559 -7.043,-13.829 -11.604,-18.633 -7.59,-7.999 -17.7,-12.742 -27.738,-13.009 -0.284,-0.008 -0.568,-0.012 -0.851,-0.012 -10.395,0 -20.579,5.184 -25.946,13.206 -4.644,6.94 -6.281,15.959 -4.865,26.842 0,0.003 0.003,0.004 0.003,0.007 l 0.048,0.378 c 0.56,-0.112 1.707,-0.345 1.707,-0.345 0.012,-0.002 0.026,-0.004 0.039,-0.004 0.047,0 0.094,0.017 0.131,0.049 0.046,0.04 0.072,0.1 0.068,0.161 l -0.106,2.062 -0.596,11.498 c 8.85,-2.207 17.979,-3.33 27.142,-3.33 h 16 c 9.177,0 18.317,1.126 27.175,3.338 l -0.342,-12.225 -0.057,-2.059 c -0.001,-0.061 0.025,-0.119 0.072,-0.159 0.036,-0.03 0.082,-0.046 0.128,-0.046 0.014,0 0.027,0.001 0.041,0.004 0.67,0.142 1.342,0.28 2.012,0.418 l 0.52,0.105 c -0.253,-0.807 -0.518,-1.628 -0.81,-2.505 m 74.683,-102.443 c 3.599,-7.875 7.304,-15.8 11.021,-23.574 -4.81,-0.513 -9.888,-1.302 -15.499,-2.41 1.181,8.616 2.689,17.351 4.478,25.984 m 33.329,74.964 c 0.596,-3.621 0.91,-7.477 0.988,-11.868 -0.007,-0.02 -0.02,-0.037 -0.02,-0.059 0.016,-1.314 0.005,-2.692 -0.03,-4.096 -10e-4,-0.036 0.008,-0.071 0.024,-0.102 l 1.876,-3.418 47.643,-86.833 C 10.743,124.146 15.523,112.967 10.847,103.585 5.824,93.514 -7.497,91.055 -18.541,90.038 -36.105,88.42 -54.03,87.601 -71.816,87.601 c -5.094,0 -10.264,0.067 -15.367,0.2 0,0 -1.961,0.05 -1.998,0.051 0,0 -0.001,10e-4 -0.001,10e-4 -20.021,0.59 -40.239,2.237 -60.092,4.893 -0.884,0.118 -2.668,0.363 -2.677,0.363 -0.043,0 -0.085,-0.013 -0.12,-0.04 -0.747,-0.561 -1.628,-1.114 -2.617,-1.643 -1.608,-0.862 -3.423,-1.622 -5.396,-2.263 -3.492,-1.135 -7.07,-1.76 -10.074,-1.76 -2.641,0 -4.685,0.494 -5.753,1.392 -2.949,2.477 -9.851,8.895 -10.242,14.963 -1.083,16.801 -0.893,34 -0.71,50.638 0.161,14.647 0.328,29.794 -0.384,44.807 l 0.071,1.27 c 1.656,-0.604 3.194,-1.895 4.247,-3.591 1.545,-2.487 2.143,-5.498 2.722,-8.413 l 7.295,-36.731 c 0.11,-0.559 0.604,-0.967 1.176,-0.967 0.081,0 0.161,0.008 0.234,0.024 0.315,0.062 0.587,0.244 0.765,0.511 0.177,0.266 0.241,0.586 0.178,0.899 l -7.293,36.731 c -0.591,2.977 -1.261,6.352 -3.038,9.211 -1.355,2.182 -3.32,3.816 -5.535,4.607 -0.155,0.206 -0.363,0.34 -0.601,0.413 l 0.037,0.691 c 0.021,0.401 0.042,0.802 0.068,1.203 0.054,0.835 0.076,1.66 0.067,2.522 -10e-4,0.117 -0.004,0.233 -0.006,0.349 0.536,-0.044 1.084,-0.146 1.634,-0.328 1.539,-0.506 2.988,-1.5 3.975,-2.724 2.35,-2.922 3.095,-6.953 3.752,-10.511 l 7.359,-39.833 c 0.105,-0.569 0.601,-0.982 1.179,-0.982 0.073,0 0.146,0.006 0.219,0.02 0.651,0.12 1.083,0.747 0.962,1.398 l -7.359,39.834 c -0.673,3.646 -1.512,8.184 -4.243,11.578 -1.862,2.313 -4.846,3.854 -7.646,3.974 -0.054,0.46 -0.116,0.909 -0.196,1.336 0.648,3.022 2.02,4.836 4.078,5.388 0.365,0.098 0.744,0.147 1.126,0.147 2.476,0 4.711,-1.992 5.74,-3.842 1.439,-2.594 1.737,-5.779 2.025,-8.858 l 0.031,-0.337 c 2.267,-24.128 8.593,-48.796 18.295,-71.336 0.273,-0.632 0.553,-1.262 0.832,-1.891 l 0.168,-0.378 c 0.026,-0.059 0.078,-0.102 0.142,-0.114 0.796,-0.169 1.594,-0.323 2.393,-0.462 4.418,-0.773 9.126,-1.164 13.994,-1.164 14.212,0 28.642,3.204 42.603,6.302 3.297,0.733 6.582,1.461 9.853,2.148 0.011,0.002 0.018,0.012 0.028,0.016 0.002,0 0.003,-10e-4 0.005,-10e-4 0.023,0 0.046,10e-4 0.063,0.005 0.648,0.135 1.306,0.27 1.972,0.405 0,0 0,0 0.001,0 6.262,1.26 11.89,2.131 17.207,2.659 0.705,0.07 1.413,0.136 2.125,0.194 3.246,0.27 6.415,0.406 9.419,0.406 15.484,0 28.266,-3.653 37.989,-10.858 0.209,-0.154 0.456,-0.236 0.715,-0.236 0.379,0 0.739,0.181 0.965,0.486 0.392,0.532 0.28,1.285 -0.25,1.68 -10.149,7.519 -23.412,11.332 -39.42,11.332 -3.263,0 -6.71,-0.159 -10.246,-0.47 -4.231,8.839 -8.52,18.034 -12.747,27.334 -0.262,0.577 -1.37,3.047 -1.37,3.047 l -0.743,1.643 c -1.067,2.358 -2.132,4.714 -3.178,7.07 -4.515,10.168 -8.413,19.385 -10.404,29.231 -4.541,22.452 2.234,47.119 17.68,64.409 6.16,-1.354 11.193,-3.544 15.375,-6.696 7.8,-5.878 13.183,-15.733 15.158,-27.748 M -152.784,44.292 c -2.635,2.666 -5.502,4.856 -8.528,6.503 -5.9,3.211 -12.895,4.839 -20.791,4.839 -3.694,0 -7.557,-0.359 -11.481,-1.067 -8.316,-1.503 -16.393,-4.344 -24.205,-7.092 -1.065,-0.375 -2.132,-0.744 -3.199,-1.112 l -1.141,-0.393 c -22.517,2.582 -44.495,8.308 -65.324,17.019 l -0.558,0.234 c -0.606,0.252 -1.211,0.505 -1.813,0.765 l 0.007,0.084 c 0,0 0,0 0,0 0.476,6.874 0.707,14.05 0.688,21.333 21.78,0.588 43.724,2.408 65.227,5.412 2.195,-1.679 5.196,-3.186 8.465,-4.249 1.792,-0.582 5.356,-1.558 9.091,-1.558 3.044,0 5.367,0.655 6.906,1.947 3.756,3.155 10.133,10.14 10.886,16.747 0.002,-0.034 0.004,-0.067 0.006,-0.1 0.434,-6.74 7.137,-13.323 11.094,-16.647 1.521,-1.278 4.036,-1.954 7.27,-1.954 3.264,0 7.115,0.667 10.84,1.877 3.146,1.023 5.814,2.276 7.943,3.723 20.51,-2.809 41.377,-4.543 62.026,-5.158 0.021,-3.579 0.078,-6.848 0.175,-9.978 -0.399,-0.296 -0.8,-0.592 -1.202,-0.884 -0.825,-0.6 -1.655,-1.192 -2.49,-1.778 -18.055,-12.692 -38.763,-22.549 -59.892,-28.513 M -23.23,64.931 c -21.702,5.184 -44.163,7.555 -63.534,9.365 l -0.004,0.088 c -0.016,0.497 -0.028,0.994 -0.04,1.49 l -0.023,0.96 c -0.077,2.739 -0.125,5.616 -0.142,8.55 5.139,-0.131 10.19,-0.199 15.013,-0.199 17.842,0 35.89,0.829 53.64,2.462 11.663,1.075 25.762,3.735 31.313,14.868 5.17,10.368 0.168,22.214 -6.007,33.47 l -49.235,89.735 c 0.12,5.929 -0.202,11.122 -0.983,15.873 -2.075,12.628 -7.787,23.025 -16.082,29.277 -4.222,3.181 -9.22,5.434 -15.28,6.885 -0.761,0.183 -1.528,0.349 -2.298,0.5 -5.023,0.989 -10.573,1.45 -17.467,1.45 -1.129,0 -2.248,-0.013 -3.356,-0.033 -17.366,-0.326 -34.85,-2.149 -51.968,-5.418 -0.645,-0.123 -1.292,-0.252 -1.937,-0.38 l -0.274,-0.055 -1.203,-0.242 0.341,12.208 c 38.383,10.507 68.555,40.873 78.817,79.311 2.21,-1.012 4.648,-1.556 7.08,-1.556 1.023,10e-4 2.042,0.095 3.03,0.28 5.851,1.1 11.423,5.169 15.283,11.164 3.453,5.363 5.287,11.598 6.756,17.537 1.501,6.076 2.849,12.627 2.542,19.37 -0.333,7.321 -2.755,13.881 -6.818,18.47 -3.863,4.361 -9.4,6.964 -14.811,6.964 -1.239,0 -2.461,-0.137 -3.633,-0.405 -1.999,-0.457 -3.936,-1.395 -5.64,-2.693 l -0.01,59.103 c 10e-4,0.01 0.01,0.016 0.01,0.026 l -10e-4,5.692 c 0,0.004 -0.003,0.011 -0.003,0.016 0,0.003 0.003,0.005 0.003,0.008 -0.032,61.835 -50.364,112.142 -112.2,112.142 h -16 c -28.417,0 -55.546,-10.687 -76.39,-30.092 -20.735,-19.305 -33.336,-45.401 -35.481,-73.481 -0.101,-1.317 -0.179,-2.752 -0.24,-4.389 -0.06,-1.615 -0.089,-2.961 -0.089,-4.238 v -64.411 c -1.599,1.118 -3.312,1.906 -5.109,2.317 -1.171,0.268 -2.392,0.404 -3.63,0.404 -5.414,0 -10.951,-2.603 -14.813,-6.963 -4.064,-4.588 -6.485,-11.148 -6.818,-18.47 -0.307,-6.739 1.04,-13.292 2.542,-19.37 1.467,-5.938 3.301,-12.173 6.755,-17.537 3.862,-5.994 9.432,-10.064 15.283,-11.164 0.989,-0.185 2.006,-0.279 3.022,-0.279 h 0.008 c 2.239,0 4.515,0.473 6.604,1.352 10.314,-38.342 40.472,-68.632 78.778,-79.112 l 0.364,-7.017 0.232,-4.488 c -0.375,0.069 -1.042,0.192 -1.191,0.218 -0.002,10e-4 -0.003,0.004 -0.006,0.004 -16.709,3.116 -33.75,4.857 -50.65,5.174 -1.108,0.02 -2.23,0.033 -3.361,0.033 -6.89,0 -12.439,-0.461 -17.462,-1.45 -0.77,-0.151 -1.536,-0.317 -2.298,-0.5 0,0 0,0 0,0 -6.06,-1.451 -11.058,-3.704 -15.281,-6.886 -8.294,-6.251 -14.005,-16.648 -16.081,-29.276 -0.78,-4.747 -1.101,-9.941 -0.982,-15.873 l -49.235,-89.735 c -6.176,-11.256 -11.179,-23.102 -6.009,-33.47 5.552,-11.133 19.652,-13.793 31.315,-14.868 17.743,-1.633 35.79,-2.462 53.639,-2.462 4.318,0 8.707,0.052 13.406,0.16 0.017,-7.104 -0.198,-14.042 -0.643,-20.621 -0.016,-0.244 -0.037,-0.485 -0.058,-0.727 l -0.04,-0.488 -0.875,-0.307 c -27.779,-9.775 -54.038,-23.342 -78.047,-40.322 -7.051,-4.986 -14.997,-11.005 -20.073,-19.36 -5.469,-9.002 -6.239,-19.784 -1.963,-27.469 6.535,-11.74 21.87,-14.371 34.5,-15.352 15.033,-1.167 30.395,-1.759 45.66,-1.759 17.06,0 34.576,0.766 52.068,2.271 -1.485,-2.673 -2.264,-5.594 -2.241,-8.477 0.028,-3.277 1.225,-5.875 3.286,-7.125 0.928,-0.563 2.058,-0.861 3.266,-0.861 0.098,0 0.199,0.011 0.3,0.023 l 0.025,0.002 c 0.442,-1.242 1.75,-4.594 3.233,-5.397 0.131,-0.626 0.352,-1.194 0.672,-1.683 1.01,-1.542 2.87,-2.572 4.975,-2.755 0.251,-0.022 0.501,-0.032 0.749,-0.032 0.827,0 1.709,0.121 2.688,0.36 0.658,-0.269 1.342,-0.467 2.036,-0.594 0.091,-0.267 0.249,-0.5 0.49,-0.645 1.659,-1.006 3.486,-1.8 5.431,-2.362 0,0 0,0 0.001,0 1.205,-0.348 2.452,-0.6 3.703,-0.749 0.009,-10e-4 0.016,-0.002 0.024,-0.002 0.027,0 0.053,0.006 0.077,0.016 1.315,0.549 2.634,1.161 4.032,1.868 2.065,1.046 4.084,2.17 6.224,3.372 0.825,0.463 1.649,0.926 2.475,1.382 15.885,8.762 33.06,15.095 51.051,18.828 2.078,-7.136 9.542,-13.335 17.839,-14.776 1.734,-0.302 3.571,-0.456 5.459,-0.456 8.336,0 16.743,2.973 23.499,5.362 l 78.414,27.721 c 15.302,5.409 32.645,11.539 45.003,24.083 11.593,11.77 18.476,32.551 8.399,47.881 -7.446,11.325 -21.729,15.961 -33.34,18.736" /></g></g></g></g></svg>